<?xml version="1.0" encoding="utf-8"?>
<svg xmlns="http://www.w3.org/2000/svg" xmlns:xlink="http://www.w3.org/1999/xlink" width="600" height="400" viewBox="0 0 2400 1600">
<defs>
  <clipPath id="clip340">
    <rect x="0" y="0" width="2400" height="1600"/>
  </clipPath>
</defs>
<path clip-path="url(#clip340)" d="M0 1600 L2400 1600 L2400 0 L0 0  Z" fill="#ffffff" fill-rule="evenodd" fill-opacity="1"/>
<defs>
  <clipPath id="clip341">
    <rect x="480" y="0" width="1681" height="1600"/>
  </clipPath>
</defs>
<path clip-path="url(#clip340)" d="M224.574 1367.02 L2352.76 1367.02 L2352.76 166.672 L224.574 166.672  Z" fill="#ffffff" fill-rule="evenodd" fill-opacity="1"/>
<defs>
  <clipPath id="clip342">
    <rect x="224" y="166" width="2129" height="1201"/>
  </clipPath>
</defs>
<polyline clip-path="url(#clip340)" style="stroke:#000000; stroke-linecap:round; stroke-linejoin:round; stroke-width:4; stroke-opacity:1; fill:none" points="224.574,1367.02 2352.76,1367.02 "/>
<polyline clip-path="url(#clip340)" style="stroke:#000000; stroke-linecap:round; stroke-linejoin:round; stroke-width:4; stroke-opacity:1; fill:none" points="284.806,1367.02 284.806,1348.12 "/>
<polyline clip-path="url(#clip340)" style="stroke:#000000; stroke-linecap:round; stroke-linejoin:round; stroke-width:4; stroke-opacity:1; fill:none" points="786.735,1367.02 786.735,1348.12 "/>
<polyline clip-path="url(#clip340)" style="stroke:#000000; stroke-linecap:round; stroke-linejoin:round; stroke-width:4; stroke-opacity:1; fill:none" points="1288.66,1367.02 1288.66,1348.12 "/>
<polyline clip-path="url(#clip340)" style="stroke:#000000; stroke-linecap:round; stroke-linejoin:round; stroke-width:4; stroke-opacity:1; fill:none" points="1790.59,1367.02 1790.59,1348.12 "/>
<polyline clip-path="url(#clip340)" style="stroke:#000000; stroke-linecap:round; stroke-linejoin:round; stroke-width:4; stroke-opacity:1; fill:none" points="2292.52,1367.02 2292.52,1348.12 "/>
<path clip-path="url(#clip340)" d="M232.205 1432.37 L284.137 1432.37 L284.137 1439.26 L232.205 1439.26 L232.205 1432.37 Z" fill="#000000" fill-rule="nonzero" fill-opacity="1" /><path clip-path="url(#clip340)" d="M308.848 1454.93 L337.407 1454.93 L337.407 1461.82 L299.004 1461.82 L299.004 1454.93 Q303.663 1450.11 311.683 1442.01 Q319.745 1433.87 321.811 1431.52 Q325.74 1427.1 327.279 1424.07 Q328.859 1420.99 328.859 1418.03 Q328.859 1413.21 325.456 1410.17 Q322.094 1407.13 316.666 1407.13 Q312.818 1407.13 308.524 1408.47 Q304.27 1409.81 299.409 1412.52 L299.409 1404.26 Q304.351 1402.27 308.645 1401.26 Q312.939 1400.25 316.504 1400.25 Q325.902 1400.25 331.492 1404.95 Q337.082 1409.64 337.082 1417.5 Q337.082 1421.23 335.665 1424.59 Q334.287 1427.91 330.601 1432.45 Q329.588 1433.63 324.16 1439.26 Q318.732 1444.85 308.848 1454.93 Z" fill="#000000" fill-rule="nonzero" fill-opacity="1" /><path clip-path="url(#clip340)" d="M733.81 1432.37 L785.743 1432.37 L785.743 1439.26 L733.81 1439.26 L733.81 1432.37 Z" fill="#000000" fill-rule="nonzero" fill-opacity="1" /><path clip-path="url(#clip340)" d="M804.823 1454.93 L818.191 1454.93 L818.191 1408.79 L803.648 1411.71 L803.648 1404.26 L818.11 1401.34 L826.292 1401.34 L826.292 1454.93 L839.66 1454.93 L839.66 1461.82 L804.823 1461.82 L804.823 1454.93 Z" fill="#000000" fill-rule="nonzero" fill-opacity="1" /><path clip-path="url(#clip340)" d="M1288.66 1406.73 Q1282.35 1406.73 1279.15 1412.97 Q1275.99 1419.16 1275.99 1431.64 Q1275.99 1444.08 1279.15 1450.32 Q1282.35 1456.51 1288.66 1456.51 Q1295.02 1456.51 1298.18 1450.32 Q1301.38 1444.08 1301.38 1431.64 Q1301.38 1419.16 1298.18 1412.97 Q1295.02 1406.73 1288.66 1406.73 M1288.66 1400.25 Q1298.83 1400.25 1304.18 1408.31 Q1309.57 1416.33 1309.57 1431.64 Q1309.57 1446.91 1304.18 1454.97 Q1298.83 1462.99 1288.66 1462.99 Q1278.5 1462.99 1273.11 1454.97 Q1267.76 1446.91 1267.76 1431.64 Q1267.76 1416.33 1273.11 1408.31 Q1278.5 1400.25 1288.66 1400.25 Z" fill="#000000" fill-rule="nonzero" fill-opacity="1" /><path clip-path="url(#clip340)" d="M1773.76 1454.93 L1787.13 1454.93 L1787.13 1408.79 L1772.59 1411.71 L1772.59 1404.26 L1787.05 1401.34 L1795.23 1401.34 L1795.23 1454.93 L1808.6 1454.93 L1808.6 1461.82 L1773.76 1461.82 L1773.76 1454.93 Z" fill="#000000" fill-rule="nonzero" fill-opacity="1" /><path clip-path="url(#clip340)" d="M2283.17 1454.93 L2311.73 1454.93 L2311.73 1461.82 L2273.32 1461.82 L2273.32 1454.93 Q2277.98 1450.11 2286 1442.01 Q2294.06 1433.87 2296.13 1431.52 Q2300.06 1427.1 2301.6 1424.07 Q2303.18 1420.99 2303.18 1418.03 Q2303.18 1413.21 2299.78 1410.17 Q2296.41 1407.13 2290.98 1407.13 Q2287.14 1407.13 2282.84 1408.47 Q2278.59 1409.81 2273.73 1412.52 L2273.73 1404.26 Q2278.67 1402.27 2282.96 1401.26 Q2287.26 1400.25 2290.82 1400.25 Q2300.22 1400.25 2305.81 1404.95 Q2311.4 1409.64 2311.4 1417.5 Q2311.4 1421.23 2309.98 1424.59 Q2308.61 1427.91 2304.92 1432.45 Q2303.91 1433.63 2298.48 1439.26 Q2293.05 1444.85 2283.17 1454.93 Z" fill="#000000" fill-rule="nonzero" fill-opacity="1" /><path clip-path="url(#clip340)" d="M1311.86 1522.83 Q1311.86 1525.78 1310.02 1527.47 Q1308.17 1529.1 1306.06 1529.1 Q1304.06 1529.1 1303.01 1527.94 Q1301.95 1526.78 1301.95 1525.31 Q1301.95 1523.31 1303.43 1521.57 Q1304.9 1519.83 1307.12 1519.46 Q1304.96 1518.09 1301.74 1518.09 Q1299.63 1518.09 1297.79 1519.2 Q1296 1520.3 1294.89 1521.73 Q1293.84 1523.15 1292.89 1525.2 Q1291.99 1527.21 1291.62 1528.42 Q1291.31 1529.58 1291.04 1530.84 L1287.35 1545.6 Q1285.56 1552.61 1285.56 1555.08 Q1285.56 1558.14 1287.04 1560.2 Q1288.51 1562.2 1291.47 1562.2 Q1292.62 1562.2 1293.94 1561.88 Q1295.26 1561.51 1296.95 1560.57 Q1298.69 1559.56 1300.21 1558.09 Q1301.79 1556.56 1303.32 1553.98 Q1304.85 1551.4 1305.85 1548.08 Q1306.17 1546.92 1307.22 1546.92 Q1308.54 1546.92 1308.54 1547.97 Q1308.54 1548.87 1307.8 1550.76 Q1307.12 1552.61 1305.59 1555.03 Q1304.11 1557.4 1302.16 1559.56 Q1300.21 1561.67 1297.32 1563.15 Q1294.42 1564.62 1291.25 1564.62 Q1286.72 1564.62 1283.72 1562.2 Q1280.71 1559.78 1279.61 1556.4 Q1279.34 1556.88 1278.98 1557.51 Q1278.61 1558.14 1277.5 1559.56 Q1276.45 1560.93 1275.23 1561.99 Q1274.02 1562.99 1272.12 1563.78 Q1270.28 1564.62 1268.28 1564.62 Q1265.75 1564.62 1263.48 1563.89 Q1261.27 1563.15 1259.69 1561.46 Q1258.11 1559.78 1258.11 1557.46 Q1258.11 1554.87 1259.85 1553.08 Q1261.64 1551.24 1264.06 1551.24 Q1265.59 1551.24 1266.8 1552.13 Q1268.07 1553.03 1268.07 1554.98 Q1268.07 1557.14 1266.59 1558.77 Q1265.12 1560.41 1263.01 1560.83 Q1265.17 1562.2 1268.38 1562.2 Q1271.86 1562.2 1274.6 1559.14 Q1277.34 1556.09 1278.66 1550.97 Q1281.93 1538.69 1283.19 1533.21 Q1284.46 1527.68 1284.46 1525.31 Q1284.46 1523.1 1283.88 1521.57 Q1283.3 1520.04 1282.3 1519.35 Q1281.35 1518.62 1280.45 1518.35 Q1279.61 1518.09 1278.66 1518.09 Q1277.08 1518.09 1275.29 1518.72 Q1273.55 1519.35 1271.44 1520.83 Q1269.38 1522.25 1267.43 1525.2 Q1265.48 1528.15 1264.17 1532.21 Q1263.9 1533.42 1262.74 1533.42 Q1261.48 1533.37 1261.48 1532.32 Q1261.48 1531.42 1262.16 1529.58 Q1262.9 1527.68 1264.38 1525.31 Q1265.91 1522.94 1267.86 1520.83 Q1269.86 1518.67 1272.76 1517.19 Q1275.71 1515.72 1278.87 1515.72 Q1280.29 1515.72 1281.66 1516.03 Q1283.09 1516.3 1284.77 1517.09 Q1286.51 1517.88 1288.04 1519.62 Q1289.57 1521.36 1290.52 1523.89 Q1291.15 1522.67 1291.99 1521.51 Q1292.89 1520.36 1294.26 1518.93 Q1295.68 1517.46 1297.63 1516.61 Q1299.63 1515.72 1301.85 1515.72 Q1304.01 1515.72 1306.12 1516.3 Q1308.22 1516.82 1310.02 1518.56 Q1311.86 1520.25 1311.86 1522.83 Z" fill="#000000" fill-rule="nonzero" fill-opacity="1" /><polyline clip-path="url(#clip340)" style="stroke:#000000; stroke-linecap:round; stroke-linejoin:round; stroke-width:4; stroke-opacity:1; fill:none" points="224.574,1367.02 224.574,166.672 "/>
<polyline clip-path="url(#clip340)" style="stroke:#000000; stroke-linecap:round; stroke-linejoin:round; stroke-width:4; stroke-opacity:1; fill:none" points="224.574,1354.18 243.472,1354.18 "/>
<polyline clip-path="url(#clip340)" style="stroke:#000000; stroke-linecap:round; stroke-linejoin:round; stroke-width:4; stroke-opacity:1; fill:none" points="224.574,1041.95 243.472,1041.95 "/>
<polyline clip-path="url(#clip340)" style="stroke:#000000; stroke-linecap:round; stroke-linejoin:round; stroke-width:4; stroke-opacity:1; fill:none" points="224.574,729.722 243.472,729.722 "/>
<polyline clip-path="url(#clip340)" style="stroke:#000000; stroke-linecap:round; stroke-linejoin:round; stroke-width:4; stroke-opacity:1; fill:none" points="224.574,417.495 243.472,417.495 "/>
<path clip-path="url(#clip340)" d="M167.671 1329.32 Q161.352 1329.32 158.152 1335.56 Q154.992 1341.76 154.992 1354.24 Q154.992 1366.67 158.152 1372.91 Q161.352 1379.11 167.671 1379.11 Q174.031 1379.11 177.191 1372.91 Q180.391 1366.67 180.391 1354.24 Q180.391 1341.76 177.191 1335.56 Q174.031 1329.32 167.671 1329.32 M167.671 1322.84 Q177.839 1322.84 183.186 1330.9 Q188.574 1338.92 188.574 1354.24 Q188.574 1369.51 183.186 1377.57 Q177.839 1385.59 167.671 1385.59 Q157.504 1385.59 152.116 1377.57 Q146.769 1369.51 146.769 1354.24 Q146.769 1338.92 152.116 1330.9 Q157.504 1322.84 167.671 1322.84 Z" fill="#000000" fill-rule="nonzero" fill-opacity="1" /><path clip-path="url(#clip340)" d="M160.015 1065.3 L188.574 1065.3 L188.574 1072.19 L150.171 1072.19 L150.171 1065.3 Q154.83 1060.48 162.851 1052.38 Q170.912 1044.24 172.978 1041.89 Q176.907 1037.47 178.447 1034.43 Q180.027 1031.36 180.027 1028.4 Q180.027 1023.58 176.624 1020.54 Q173.262 1017.5 167.833 1017.5 Q163.985 1017.5 159.691 1018.84 Q155.438 1020.17 150.577 1022.89 L150.577 1014.63 Q155.519 1012.64 159.813 1011.63 Q164.107 1010.61 167.671 1010.61 Q177.069 1010.61 182.66 1015.31 Q188.25 1020.01 188.25 1027.87 Q188.25 1031.6 186.832 1034.96 Q185.455 1038.28 181.768 1042.82 Q180.756 1043.99 175.328 1049.62 Q169.899 1055.22 160.015 1065.3 Z" fill="#000000" fill-rule="nonzero" fill-opacity="1" /><path clip-path="url(#clip340)" d="M171.803 706.611 L151.144 738.897 L171.803 738.897 L171.803 706.611 M169.656 699.482 L179.946 699.482 L179.946 738.897 L188.574 738.897 L188.574 745.702 L179.946 745.702 L179.946 759.962 L171.803 759.962 L171.803 745.702 L144.5 745.702 L144.5 737.803 L169.656 699.482 Z" fill="#000000" fill-rule="nonzero" fill-opacity="1" /><path clip-path="url(#clip340)" d="M168.4 414.234 Q162.891 414.234 159.651 418.001 Q156.45 421.768 156.45 428.331 Q156.45 434.853 159.651 438.661 Q162.891 442.428 168.4 442.428 Q173.91 442.428 177.11 438.661 Q180.351 434.853 180.351 428.331 Q180.351 421.768 177.11 418.001 Q173.91 414.234 168.4 414.234 M184.645 388.591 L184.645 396.045 Q181.566 394.587 178.406 393.817 Q175.287 393.047 172.208 393.047 Q164.107 393.047 159.813 398.516 Q155.559 403.985 154.951 415.044 Q157.342 411.52 160.947 409.656 Q164.552 407.752 168.887 407.752 Q178.001 407.752 183.267 413.302 Q188.574 418.811 188.574 428.331 Q188.574 437.648 183.065 443.279 Q177.556 448.909 168.4 448.909 Q157.909 448.909 152.359 440.889 Q146.809 432.827 146.809 417.555 Q146.809 403.215 153.615 394.708 Q160.42 386.161 171.884 386.161 Q174.963 386.161 178.082 386.768 Q181.242 387.376 184.645 388.591 Z" fill="#000000" fill-rule="nonzero" fill-opacity="1" /><path clip-path="url(#clip340)" d="M42.9106 865.416 Q43.6484 865.416 45.3875 865.891 L86.5993 876.22 Q95.7692 878.486 102.199 885.864 Q108.628 893.189 108.628 901.516 Q108.628 906.523 105.94 909.737 Q103.305 912.952 99.2474 912.952 Q95.6638 912.952 93.9247 911.055 Q92.2383 909.158 92.2383 906.892 Q92.2383 906.154 92.4491 905.363 Q92.6599 904.573 93.5558 903.73 Q94.4517 902.886 95.98 902.886 Q98.4569 902.886 100.407 905.047 Q101.303 906.101 101.514 907.102 Q101.724 908.051 101.724 909.685 Q103.2 909.052 104.201 907.893 Q105.203 906.733 105.572 905.416 Q105.993 904.098 106.099 903.255 Q106.257 902.359 106.257 901.516 Q106.257 894.77 99.4582 889.606 Q97.4029 888.077 95.3476 886.971 Q93.345 885.811 90.8681 884.968 Q88.4438 884.125 87.1263 883.756 Q85.8088 883.334 82.8049 882.597 Q87.706 887.498 87.706 893.506 Q87.706 896.035 87.0209 898.301 Q86.3358 900.515 84.9129 902.465 Q83.4373 904.415 80.855 905.574 Q78.2726 906.681 74.8471 906.681 Q71.2108 906.681 66.2569 905.258 Q61.3031 903.835 52.1859 900.409 Q47.0739 898.565 44.597 898.565 Q43.3849 898.565 42.6471 898.828 Q41.8566 899.092 41.5931 899.619 Q41.2769 900.146 41.2242 900.462 Q41.1715 900.726 41.1715 901.253 Q41.1715 904.362 44.3335 907.26 Q47.4956 910.159 54.5574 912.162 Q55.8749 912.583 56.1911 912.847 Q56.5073 913.11 56.5073 913.901 Q56.4546 915.218 55.4006 915.218 Q54.979 915.218 53.3453 914.744 Q51.6589 914.27 49.182 913.163 Q46.6523 912.003 44.3862 910.422 Q42.0674 908.841 40.4337 906.365 Q38.8 903.835 38.8 900.936 Q38.8 896.984 41.3823 894.56 Q43.9119 892.083 47.6537 892.083 Q49.182 892.083 50.5522 892.504 Q51.8697 892.873 55.4006 894.243 Q69.6298 899.777 76.5862 899.777 Q78.2726 899.777 79.6956 899.513 Q81.0658 899.197 82.436 898.512 Q83.7535 897.827 84.544 896.457 Q85.2818 895.034 85.2818 893.084 Q85.2818 890.607 84.1224 888.288 Q82.9103 885.917 81.2766 884.441 Q79.6429 882.913 78.2726 882.017 Q76.8497 881.068 76.1119 880.857 L56.7181 876.009 L48.0753 873.848 Q43.3849 872.847 42.2255 872.373 Q41.1188 871.74 40.5391 870.634 Q39.9594 869.527 39.9594 868.578 Q39.9594 867.261 40.7499 866.365 Q41.5404 865.416 42.9106 865.416 Z" fill="#000000" fill-rule="nonzero" fill-opacity="1" /><path clip-path="url(#clip340)" d="M70.1041 832.926 Q68.7866 832.821 68.7866 830.765 L68.7866 764.626 Q68.7866 761.517 69.9987 761.464 Q71.3162 761.464 71.2635 764.415 L71.2635 830.028 Q71.3162 832.926 70.1041 832.926 M49.0239 832.926 Q47.7064 832.926 47.7591 830.66 L47.7591 764.732 Q47.7591 761.517 49.0239 761.464 Q50.236 761.464 50.236 764.205 L50.236 830.765 Q50.236 832.926 49.0239 832.926 Z" fill="#000000" fill-rule="nonzero" fill-opacity="1" /><path clip-path="url(#clip340)" d="M74.0039 678.787 Q74.4782 678.365 74.9525 678.365 Q75.4268 678.365 76.797 679.419 Q78.1672 680.42 80.0118 682.581 Q81.8563 684.742 83.5954 687.535 Q85.3345 690.328 86.4939 694.439 Q87.706 698.549 87.706 702.871 Q87.706 710.618 82.1725 715.255 Q76.6389 719.84 68.1541 719.84 Q62.726 719.84 57.9303 718.048 Q53.0818 716.257 49.6563 713.358 Q46.2307 710.407 43.7538 706.718 Q41.2242 702.976 40.0121 699.076 Q38.8 695.176 38.8 691.54 Q38.8 686.217 41.4877 683.108 Q44.1754 679.999 47.9699 679.999 Q48.8658 679.999 49.9725 680.262 Q51.0792 680.473 52.8183 681.211 Q54.5574 681.896 56.2965 683.688 Q57.983 685.48 59.0897 688.115 Q61.5666 693.964 61.5666 704.61 L61.5666 710.354 Q68.365 712.041 72.7918 712.041 Q74.5309 712.041 76.3227 711.724 Q78.0618 711.408 80.2753 710.565 Q82.4887 709.669 83.9116 707.666 Q85.2818 705.611 85.2818 702.66 Q85.2818 701.711 85.2291 700.71 Q85.1764 699.656 84.5967 697.021 Q84.017 694.333 83.0157 691.962 Q82.0144 689.59 79.8537 686.586 Q77.6402 683.53 74.6363 681.105 Q73.5296 680.262 73.5296 679.683 Q73.5296 679.208 74.0039 678.787 M47.9699 683.582 Q45.0713 683.582 43.1214 685.743 Q41.1715 687.851 41.1715 691.54 Q41.1715 692.7 41.435 694.122 Q41.6985 695.545 42.8052 697.917 Q43.9119 700.236 45.7564 702.291 Q47.5483 704.346 51.0792 706.402 Q54.5574 708.457 59.1951 709.669 L59.1951 705.242 Q59.1951 703.714 59.1951 702.607 Q59.1424 701.501 58.9316 699.076 Q58.7208 696.599 58.3519 694.808 Q57.9303 693.016 57.087 690.75 Q56.2438 688.484 55.1371 687.061 Q53.9777 685.585 52.1332 684.584 Q50.2887 683.582 47.9699 683.582 Z" fill="#000000" fill-rule="nonzero" fill-opacity="1" /><path clip-path="url(#clip340)" d="M19.931 629.63 Q21.9969 629.63 23.1774 630.921 Q24.321 632.212 24.321 633.688 Q24.321 635.089 23.5094 635.827 Q22.6978 636.565 21.6649 636.565 Q20.263 636.565 19.0456 635.532 Q17.8283 634.499 17.57 632.95 Q16.6109 634.462 16.6109 636.713 Q16.6109 638.188 17.3856 639.479 Q18.1603 640.734 19.1563 641.508 Q20.1524 642.246 21.5911 642.91 Q22.9929 643.537 23.8414 643.796 Q24.653 644.017 25.5383 644.201 L35.8676 646.784 Q40.7741 648.038 42.5079 648.038 Q44.6475 648.038 46.0863 647.005 Q47.4881 645.972 47.4881 643.906 Q47.4881 643.095 47.2668 642.172 Q47.0085 641.25 46.3445 640.07 Q45.6436 638.852 44.6107 637.782 Q43.5408 636.676 41.7332 635.606 Q39.9256 634.536 37.6015 633.835 Q36.7899 633.614 36.7899 632.876 Q36.7899 631.954 37.5277 631.954 Q38.1548 631.954 39.4829 632.47 Q40.7741 632.95 42.471 634.02 Q44.1311 635.053 45.6436 636.417 Q47.1192 637.782 48.1521 639.811 Q49.1851 641.84 49.1851 644.054 Q49.1851 647.226 47.4881 649.329 Q45.7911 651.432 43.4302 652.207 Q43.7622 652.391 44.2049 652.649 Q44.6475 652.907 45.6436 653.682 Q46.6027 654.42 47.3405 655.268 Q48.0415 656.117 48.5948 657.445 Q49.1851 658.736 49.1851 660.138 Q49.1851 661.909 48.6686 663.495 Q48.1521 665.044 46.9716 666.151 Q45.7911 667.258 44.168 667.258 Q42.3603 667.258 41.1061 666.04 Q39.8149 664.786 39.8149 663.089 Q39.8149 662.019 40.442 661.171 Q41.0692 660.286 42.4341 660.286 Q43.9466 660.286 45.0902 661.318 Q46.2338 662.351 46.529 663.827 Q47.4881 662.314 47.4881 660.064 Q47.4881 657.629 45.3485 655.711 Q43.2088 653.793 39.6305 652.871 Q31.035 650.583 27.1984 649.698 Q23.3249 648.813 21.6649 648.813 Q20.1155 648.813 19.0456 649.218 Q17.9758 649.624 17.4962 650.325 Q16.9798 650.989 16.7953 651.616 Q16.6109 652.207 16.6109 652.871 Q16.6109 653.977 17.0536 655.232 Q17.4962 656.449 18.5292 657.925 Q19.5252 659.363 21.5911 660.728 Q23.6569 662.093 26.4975 663.015 Q27.346 663.2 27.346 664.011 Q27.3091 664.897 26.5713 664.897 Q25.9441 664.897 24.653 664.417 Q23.3249 663.901 21.6649 662.868 Q20.0048 661.798 18.5292 660.433 Q17.0167 659.031 15.9837 657.002 Q14.9508 654.936 14.9508 652.723 Q14.9508 651.727 15.1722 650.768 Q15.3566 649.772 15.91 648.591 Q16.4633 647.374 17.6807 646.304 Q18.8981 645.234 20.6688 644.57 Q19.8203 644.128 19.0088 643.537 Q18.1972 642.91 17.2011 641.951 Q16.1682 640.955 15.5779 639.59 Q14.9508 638.188 14.9508 636.639 Q14.9508 635.126 15.3566 633.651 Q15.7255 632.175 16.9429 630.921 Q18.1234 629.63 19.931 629.63 Z" fill="#000000" fill-rule="nonzero" fill-opacity="1" /><path clip-path="url(#clip340)" d="M568.079 20.736 L633.634 20.736 L633.634 32.5415 L582.106 32.5415 L582.106 63.2358 L631.481 63.2358 L631.481 75.0413 L582.106 75.0413 L582.106 112.611 L634.884 112.611 L634.884 124.416 L568.079 124.416 L568.079 20.736 Z" fill="#000000" fill-rule="nonzero" fill-opacity="1" /><path clip-path="url(#clip340)" d="M722.036 46.6386 L693.911 84.4857 L723.494 124.416 L708.425 124.416 L685.786 93.8606 L663.147 124.416 L648.078 124.416 L678.286 83.7218 L650.648 46.6386 L665.717 46.6386 L686.342 74.3468 L706.967 46.6386 L722.036 46.6386 Z" fill="#000000" fill-rule="nonzero" fill-opacity="1" /><path clip-path="url(#clip340)" d="M753.911 112.749 L753.911 153.999 L741.064 153.999 L741.064 46.6386 L753.911 46.6386 L753.911 58.4441 Q757.939 51.4997 764.05 48.1664 Q770.23 44.7636 778.772 44.7636 Q792.938 44.7636 801.758 56.0136 Q810.647 67.2635 810.647 85.5968 Q810.647 103.93 801.758 115.18 Q792.938 126.43 778.772 126.43 Q770.23 126.43 764.05 123.097 Q757.939 119.694 753.911 112.749 M797.383 85.5968 Q797.383 71.4996 791.55 63.5135 Q785.786 55.458 775.647 55.458 Q765.508 55.458 759.675 63.5135 Q753.911 71.4996 753.911 85.5968 Q753.911 99.6939 759.675 107.749 Q765.508 115.735 775.647 115.735 Q785.786 115.735 791.55 107.749 Q797.383 99.6939 797.383 85.5968 Z" fill="#000000" fill-rule="nonzero" fill-opacity="1" /><path clip-path="url(#clip340)" d="M861.966 55.5969 Q851.688 55.5969 845.716 63.6524 Q839.744 71.6385 839.744 85.5968 Q839.744 99.555 845.646 107.611 Q851.619 115.597 861.966 115.597 Q872.174 115.597 878.146 107.541 Q884.119 99.4856 884.119 85.5968 Q884.119 71.7774 878.146 63.7219 Q872.174 55.5969 861.966 55.5969 M861.966 44.7636 Q878.632 44.7636 888.146 55.5969 Q897.66 66.4302 897.66 85.5968 Q897.66 104.694 888.146 115.597 Q878.632 126.43 861.966 126.43 Q845.23 126.43 835.716 115.597 Q826.272 104.694 826.272 85.5968 Q826.272 66.4302 835.716 55.5969 Q845.23 44.7636 861.966 44.7636 Z" fill="#000000" fill-rule="nonzero" fill-opacity="1" /><path clip-path="url(#clip340)" d="M983.493 77.4718 L983.493 124.416 L970.715 124.416 L970.715 77.8885 Q970.715 66.8469 966.41 61.3608 Q962.104 55.8747 953.493 55.8747 Q943.146 55.8747 937.174 62.4719 Q931.202 69.0691 931.202 80.4579 L931.202 124.416 L918.354 124.416 L918.354 46.6386 L931.202 46.6386 L931.202 58.7219 Q935.785 51.7081 941.965 48.2359 Q948.215 44.7636 956.34 44.7636 Q969.743 44.7636 976.618 53.0969 Q983.493 61.3608 983.493 77.4718 Z" fill="#000000" fill-rule="nonzero" fill-opacity="1" /><path clip-path="url(#clip340)" d="M1075.51 82.3329 L1075.51 88.5829 L1016.76 88.5829 Q1017.59 101.777 1024.67 108.722 Q1031.83 115.597 1044.53 115.597 Q1051.9 115.597 1058.77 113.791 Q1065.71 111.986 1072.52 108.374 L1072.52 120.458 Q1065.65 123.374 1058.42 124.902 Q1051.2 126.43 1043.77 126.43 Q1025.16 126.43 1014.26 115.597 Q1003.42 104.763 1003.42 86.2912 Q1003.42 67.1941 1013.7 56.0136 Q1024.05 44.7636 1041.55 44.7636 Q1057.24 44.7636 1066.34 54.9025 Q1075.51 64.9719 1075.51 82.3329 M1062.73 78.5829 Q1062.59 68.0969 1056.83 61.8469 Q1051.13 55.5969 1041.69 55.5969 Q1030.99 55.5969 1024.53 61.6386 Q1018.15 67.6802 1017.17 78.6524 L1062.73 78.5829 Z" fill="#000000" fill-rule="nonzero" fill-opacity="1" /><path clip-path="url(#clip340)" d="M1161.13 77.4718 L1161.13 124.416 L1148.35 124.416 L1148.35 77.8885 Q1148.35 66.8469 1144.05 61.3608 Q1139.74 55.8747 1131.13 55.8747 Q1120.78 55.8747 1114.81 62.4719 Q1108.84 69.0691 1108.84 80.4579 L1108.84 124.416 L1095.99 124.416 L1095.99 46.6386 L1108.84 46.6386 L1108.84 58.7219 Q1113.42 51.7081 1119.6 48.2359 Q1125.85 44.7636 1133.98 44.7636 Q1147.38 44.7636 1154.26 53.0969 Q1161.13 61.3608 1161.13 77.4718 Z" fill="#000000" fill-rule="nonzero" fill-opacity="1" /><path clip-path="url(#clip340)" d="M1199.26 24.5554 L1199.26 46.6386 L1225.58 46.6386 L1225.58 56.5691 L1199.26 56.5691 L1199.26 98.7911 Q1199.26 108.305 1201.83 111.013 Q1204.46 113.722 1212.45 113.722 L1225.58 113.722 L1225.58 124.416 L1212.45 124.416 Q1197.66 124.416 1192.03 118.93 Q1186.41 113.374 1186.41 98.7911 L1186.41 56.5691 L1177.03 56.5691 L1177.03 46.6386 L1186.41 46.6386 L1186.41 24.5554 L1199.26 24.5554 Z" fill="#000000" fill-rule="nonzero" fill-opacity="1" /><path clip-path="url(#clip340)" d="M1242.38 46.6386 L1255.16 46.6386 L1255.16 124.416 L1242.38 124.416 L1242.38 46.6386 M1242.38 16.361 L1255.16 16.361 L1255.16 32.5415 L1242.38 32.5415 L1242.38 16.361 Z" fill="#000000" fill-rule="nonzero" fill-opacity="1" /><path clip-path="url(#clip340)" d="M1317.24 85.319 Q1301.76 85.319 1295.78 88.8606 Q1289.81 92.4023 1289.81 100.944 Q1289.81 107.749 1294.26 111.777 Q1298.77 115.735 1306.48 115.735 Q1317.1 115.735 1323.49 108.236 Q1329.95 100.666 1329.95 88.1662 L1329.95 85.319 L1317.24 85.319 M1342.73 80.0412 L1342.73 124.416 L1329.95 124.416 L1329.95 112.611 Q1325.57 119.694 1319.05 123.097 Q1312.52 126.43 1303.07 126.43 Q1291.13 126.43 1284.05 119.763 Q1277.03 113.027 1277.03 101.777 Q1277.03 88.6523 1285.78 81.9857 Q1294.6 75.319 1312.03 75.319 L1329.95 75.319 L1329.95 74.069 Q1329.95 65.2497 1324.12 60.458 Q1318.35 55.5969 1307.87 55.5969 Q1301.2 55.5969 1294.88 57.1941 Q1288.56 58.7914 1282.73 61.9858 L1282.73 50.1803 Q1289.74 47.472 1296.34 46.1525 Q1302.94 44.7636 1309.19 44.7636 Q1326.06 44.7636 1334.39 53.5136 Q1342.73 62.2636 1342.73 80.0412 Z" fill="#000000" fill-rule="nonzero" fill-opacity="1" /><path clip-path="url(#clip340)" d="M1369.05 16.361 L1381.82 16.361 L1381.82 124.416 L1369.05 124.416 L1369.05 16.361 Z" fill="#000000" fill-rule="nonzero" fill-opacity="1" /><path clip-path="url(#clip340)" d="M1493.14 16.361 L1493.14 26.986 L1480.92 26.986 Q1474.05 26.986 1471.34 29.7637 Q1468.7 32.5415 1468.7 39.7637 L1468.7 46.6386 L1489.74 46.6386 L1489.74 56.5691 L1468.7 56.5691 L1468.7 124.416 L1455.85 124.416 L1455.85 56.5691 L1443.63 56.5691 L1443.63 46.6386 L1455.85 46.6386 L1455.85 41.222 Q1455.85 28.236 1461.89 22.3332 Q1467.93 16.361 1481.06 16.361 L1493.14 16.361 Z" fill="#000000" fill-rule="nonzero" fill-opacity="1" /><path clip-path="url(#clip340)" d="M1502.52 93.7217 L1502.52 46.6386 L1515.3 46.6386 L1515.3 93.2356 Q1515.3 104.277 1519.6 109.833 Q1523.91 115.319 1532.52 115.319 Q1542.86 115.319 1548.84 108.722 Q1554.88 102.124 1554.88 90.7356 L1554.88 46.6386 L1567.66 46.6386 L1567.66 124.416 L1554.88 124.416 L1554.88 112.472 Q1550.23 119.555 1544.05 123.027 Q1537.93 126.43 1529.81 126.43 Q1516.41 126.43 1509.46 118.097 Q1502.52 109.763 1502.52 93.7217 M1534.67 44.7636 L1534.67 44.7636 Z" fill="#000000" fill-rule="nonzero" fill-opacity="1" /><path clip-path="url(#clip340)" d="M1658.63 77.4718 L1658.63 124.416 L1645.85 124.416 L1645.85 77.8885 Q1645.85 66.8469 1641.55 61.3608 Q1637.24 55.8747 1628.63 55.8747 Q1618.28 55.8747 1612.31 62.4719 Q1606.34 69.0691 1606.34 80.4579 L1606.34 124.416 L1593.49 124.416 L1593.49 46.6386 L1606.34 46.6386 L1606.34 58.7219 Q1610.92 51.7081 1617.1 48.2359 Q1623.35 44.7636 1631.48 44.7636 Q1644.88 44.7636 1651.75 53.0969 Q1658.63 61.3608 1658.63 77.4718 Z" fill="#000000" fill-rule="nonzero" fill-opacity="1" /><path clip-path="url(#clip340)" d="M1740.09 49.6247 L1740.09 61.5691 Q1734.67 58.583 1729.18 57.1247 Q1723.77 55.5969 1718.21 55.5969 Q1705.78 55.5969 1698.91 63.5135 Q1692.03 71.3607 1692.03 85.5968 Q1692.03 99.8328 1698.91 107.749 Q1705.78 115.597 1718.21 115.597 Q1723.77 115.597 1729.18 114.138 Q1734.67 112.611 1740.09 109.624 L1740.09 121.43 Q1734.74 123.93 1728.98 125.18 Q1723.28 126.43 1716.82 126.43 Q1699.25 126.43 1688.91 115.388 Q1678.56 104.347 1678.56 85.5968 Q1678.56 66.5691 1688.98 55.6664 Q1699.46 44.7636 1717.66 44.7636 Q1723.56 44.7636 1729.18 46.0136 Q1734.81 47.1942 1740.09 49.6247 Z" fill="#000000" fill-rule="nonzero" fill-opacity="1" /><path clip-path="url(#clip340)" d="M1774.95 24.5554 L1774.95 46.6386 L1801.27 46.6386 L1801.27 56.5691 L1774.95 56.5691 L1774.95 98.7911 Q1774.95 108.305 1777.52 111.013 Q1780.16 113.722 1788.14 113.722 L1801.27 113.722 L1801.27 124.416 L1788.14 124.416 Q1773.35 124.416 1767.72 118.93 Q1762.1 113.374 1762.1 98.7911 L1762.1 56.5691 L1752.72 56.5691 L1752.72 46.6386 L1762.1 46.6386 L1762.1 24.5554 L1774.95 24.5554 Z" fill="#000000" fill-rule="nonzero" fill-opacity="1" /><path clip-path="url(#clip340)" d="M1818.07 46.6386 L1830.85 46.6386 L1830.85 124.416 L1818.07 124.416 L1818.07 46.6386 M1818.07 16.361 L1830.85 16.361 L1830.85 32.5415 L1818.07 32.5415 L1818.07 16.361 Z" fill="#000000" fill-rule="nonzero" fill-opacity="1" /><path clip-path="url(#clip340)" d="M1887.72 55.5969 Q1877.45 55.5969 1871.47 63.6524 Q1865.5 71.6385 1865.5 85.5968 Q1865.5 99.555 1871.4 107.611 Q1877.38 115.597 1887.72 115.597 Q1897.93 115.597 1903.9 107.541 Q1909.88 99.4856 1909.88 85.5968 Q1909.88 71.7774 1903.9 63.7219 Q1897.93 55.5969 1887.72 55.5969 M1887.72 44.7636 Q1904.39 44.7636 1913.9 55.5969 Q1923.42 66.4302 1923.42 85.5968 Q1923.42 104.694 1913.9 115.597 Q1904.39 126.43 1887.72 126.43 Q1870.99 126.43 1861.47 115.597 Q1852.03 104.694 1852.03 85.5968 Q1852.03 66.4302 1861.47 55.5969 Q1870.99 44.7636 1887.72 44.7636 Z" fill="#000000" fill-rule="nonzero" fill-opacity="1" /><path clip-path="url(#clip340)" d="M2009.25 77.4718 L2009.25 124.416 L1996.47 124.416 L1996.47 77.8885 Q1996.47 66.8469 1992.17 61.3608 Q1987.86 55.8747 1979.25 55.8747 Q1968.9 55.8747 1962.93 62.4719 Q1956.96 69.0691 1956.96 80.4579 L1956.96 124.416 L1944.11 124.416 L1944.11 46.6386 L1956.96 46.6386 L1956.96 58.7219 Q1961.54 51.7081 1967.72 48.2359 Q1973.97 44.7636 1982.1 44.7636 Q1995.5 44.7636 2002.38 53.0969 Q2009.25 61.3608 2009.25 77.4718 Z" fill="#000000" fill-rule="nonzero" fill-opacity="1" /><polyline clip-path="url(#clip342)" style="stroke:#6c8ebf; stroke-linecap:round; stroke-linejoin:round; stroke-width:12; stroke-opacity:1; fill:none" points="284.806,1333.05 289.825,1332.84 294.844,1332.62 299.863,1332.4 304.883,1332.19 309.902,1331.96 314.921,1331.74 319.941,1331.52 324.96,1331.29 329.979,1331.06 334.999,1330.83 340.018,1330.59 345.037,1330.35 350.056,1330.11 355.076,1329.87 360.095,1329.63 365.114,1329.38 370.134,1329.13 375.153,1328.88 380.172,1328.63 385.191,1328.37 390.211,1328.11 395.23,1327.85 400.249,1327.58 405.269,1327.32 410.288,1327.05 415.307,1326.77 420.327,1326.5 425.346,1326.22 430.365,1325.94 435.384,1325.66 440.404,1325.37 445.423,1325.08 450.442,1324.79 455.462,1324.49 460.481,1324.19 465.5,1323.89 470.52,1323.59 475.539,1323.28 480.558,1322.97 485.577,1322.66 490.597,1322.34 495.616,1322.02 500.635,1321.7 505.655,1321.37 510.674,1321.04 515.693,1320.71 520.713,1320.37 525.732,1320.03 530.751,1319.69 535.77,1319.34 540.79,1318.99 545.809,1318.64 550.828,1318.28 555.848,1317.92 560.867,1317.56 565.886,1317.19 570.905,1316.82 575.925,1316.44 580.944,1316.06 585.963,1315.68 590.983,1315.29 596.002,1314.9 601.021,1314.51 606.041,1314.11 611.06,1313.7 616.079,1313.3 621.098,1312.89 626.118,1312.47 631.137,1312.05 636.156,1311.63 641.176,1311.2 646.195,1310.77 651.214,1310.33 656.234,1309.89 661.253,1309.45 666.272,1309 671.291,1308.54 676.311,1308.09 681.33,1307.62 686.349,1307.15 691.369,1306.68 696.388,1306.21 701.407,1305.72 706.427,1305.24 711.446,1304.74 716.465,1304.25 721.484,1303.75 726.504,1303.24 731.523,1302.73 736.542,1302.21 741.562,1301.69 746.581,1301.16 751.6,1300.63 756.619,1300.09 761.639,1299.55 766.658,1299 771.677,1298.44 776.697,1297.88 781.716,1297.32 786.735,1296.74 791.755,1296.17 796.774,1295.58 801.793,1295 806.812,1294.4 811.832,1293.8 816.851,1293.19 821.87,1292.58 826.89,1291.96 831.909,1291.34 836.928,1290.7 841.948,1290.07 846.967,1289.42 851.986,1288.77 857.005,1288.11 862.025,1287.45 867.044,1286.78 872.063,1286.1 877.083,1285.42 882.102,1284.73 887.121,1284.03 892.14,1283.32 897.16,1282.61 902.179,1281.89 907.198,1281.17 912.218,1280.43 917.237,1279.69 922.256,1278.94 927.276,1278.19 932.295,1277.42 937.314,1276.65 942.333,1275.87 947.353,1275.09 952.372,1274.29 957.391,1273.49 962.411,1272.68 967.43,1271.86 972.449,1271.03 977.469,1270.2 982.488,1269.35 987.507,1268.5 992.526,1267.64 997.546,1266.77 1002.57,1265.89 1007.58,1265 1012.6,1264.11 1017.62,1263.2 1022.64,1262.29 1027.66,1261.36 1032.68,1260.43 1037.7,1259.49 1042.72,1258.54 1047.74,1257.57 1052.76,1256.6 1057.78,1255.62 1062.8,1254.63 1067.82,1253.63 1072.84,1252.62 1077.85,1251.6 1082.87,1250.57 1087.89,1249.53 1092.91,1248.48 1097.93,1247.42 1102.95,1246.34 1107.97,1245.26 1112.99,1244.16 1118.01,1243.06 1123.03,1241.94 1128.05,1240.81 1133.07,1239.67 1138.09,1238.52 1143.11,1237.36 1148.12,1236.19 1153.14,1235 1158.16,1233.8 1163.18,1232.59 1168.2,1231.37 1173.22,1230.14 1178.24,1228.89 1183.26,1227.63 1188.28,1226.36 1193.3,1225.08 1198.32,1223.78 1203.34,1222.47 1208.36,1221.14 1213.38,1219.81 1218.39,1218.46 1223.41,1217.09 1228.43,1215.72 1233.45,1214.32 1238.47,1212.92 1243.49,1211.5 1248.51,1210.06 1253.53,1208.62 1258.55,1207.15 1263.57,1205.68 1268.59,1204.18 1273.61,1202.68 1278.63,1201.15 1283.65,1199.62 1288.66,1198.06 1293.68,1196.49 1298.7,1194.91 1303.72,1193.31 1308.74,1191.69 1313.76,1190.06 1318.78,1188.41 1323.8,1186.74 1328.82,1185.06 1333.84,1183.36 1338.86,1181.64 1343.88,1179.91 1348.9,1178.16 1353.92,1176.39 1358.94,1174.6 1363.95,1172.8 1368.97,1170.97 1373.99,1169.13 1379.01,1167.27 1384.03,1165.4 1389.05,1163.5 1394.07,1161.58 1399.09,1159.65 1404.11,1157.69 1409.13,1155.72 1414.15,1153.72 1419.17,1151.71 1424.19,1149.67 1429.21,1147.62 1434.22,1145.54 1439.24,1143.44 1444.26,1141.33 1449.28,1139.19 1454.3,1137.03 1459.32,1134.84 1464.34,1132.64 1469.36,1130.41 1474.38,1128.16 1479.4,1125.89 1484.42,1123.6 1489.44,1121.28 1494.46,1118.94 1499.48,1116.58 1504.49,1114.19 1509.51,1111.78 1514.53,1109.34 1519.55,1106.88 1524.57,1104.39 1529.59,1101.88 1534.61,1099.35 1539.63,1096.79 1544.65,1094.2 1549.67,1091.59 1554.69,1088.95 1559.71,1086.28 1564.73,1083.59 1569.75,1080.87 1574.76,1078.13 1579.78,1075.35 1584.8,1072.55 1589.82,1069.72 1594.84,1066.86 1599.86,1063.97 1604.88,1061.06 1609.9,1058.11 1614.92,1055.13 1619.94,1052.13 1624.96,1049.09 1629.98,1046.03 1635,1042.93 1640.02,1039.8 1645.04,1036.64 1650.05,1033.45 1655.07,1030.23 1660.09,1026.97 1665.11,1023.68 1670.13,1020.36 1675.15,1017.01 1680.17,1013.62 1685.19,1010.2 1690.21,1006.74 1695.23,1003.25 1700.25,999.72 1705.27,996.157 1710.29,992.559 1715.31,988.925 1720.32,985.254 1725.34,981.546 1730.36,977.801 1735.38,974.019 1740.4,970.198 1745.42,966.339 1750.44,962.441 1755.46,958.504 1760.48,954.528 1765.5,950.511 1770.52,946.454 1775.54,942.357 1780.56,938.218 1785.58,934.037 1790.59,929.815 1795.61,925.55 1800.63,921.242 1805.65,916.891 1810.67,912.497 1815.69,908.058 1820.71,903.574 1825.73,899.045 1830.75,894.471 1835.77,889.851 1840.79,885.185 1845.81,880.471 1850.83,875.71 1855.85,870.902 1860.86,866.045 1865.88,861.139 1870.9,856.184 1875.92,851.179 1880.94,846.124 1885.96,841.018 1890.98,835.86 1896,830.651 1901.02,825.39 1906.04,820.075 1911.06,814.708 1916.08,809.286 1921.1,803.81 1926.12,798.278 1931.13,792.692 1936.15,787.048 1941.17,781.349 1946.19,775.592 1951.21,769.777 1956.23,763.904 1961.25,757.971 1966.27,751.979 1971.29,745.927 1976.31,739.814 1981.33,733.64 1986.35,727.403 1991.37,721.104 1996.39,714.742 2001.41,708.315 2006.42,701.824 2011.44,695.268 2016.46,688.646 2021.48,681.957 2026.5,675.201 2031.52,668.377 2036.54,661.485 2041.56,654.523 2046.58,647.492 2051.6,640.389 2056.62,633.216 2061.64,625.97 2066.66,618.651 2071.68,611.259 2076.69,603.793 2081.71,596.251 2086.73,588.634 2091.75,580.94 2096.77,573.169 2101.79,565.32 2106.81,557.392 2111.83,549.384 2116.85,541.296 2121.87,533.126 2126.89,524.874 2131.91,516.54 2136.93,508.121 2141.95,499.618 2146.96,491.03 2151.98,482.355 2157,473.593 2162.02,464.743 2167.04,455.804 2172.06,446.776 2177.08,437.656 2182.1,428.445 2187.12,419.141 2192.14,409.744 2197.16,400.252 2202.18,390.665 2207.2,380.982 2212.22,371.201 2217.23,361.322 2222.25,351.344 2227.27,341.265 2232.29,331.085 2237.31,320.803 2242.33,310.417 2247.35,299.927 2252.37,289.332 2257.39,278.63 2262.41,267.821 2267.43,256.903 2272.45,245.875 2277.47,234.736 2282.49,223.486 2287.51,212.122 2292.52,200.644 "/>
</svg>
