<?xml version="1.0" encoding="utf-8"?>
<svg xmlns="http://www.w3.org/2000/svg" xmlns:xlink="http://www.w3.org/1999/xlink" width="600" height="400" viewBox="0 0 2400 1600">
<defs>
  <clipPath id="clip500">
    <rect x="0" y="0" width="2400" height="1600"/>
  </clipPath>
</defs>
<path clip-path="url(#clip500)" d="M0 1600 L2400 1600 L2400 0 L0 0  Z" fill="#ffffff" fill-rule="evenodd" fill-opacity="1"/>
<defs>
  <clipPath id="clip501">
    <rect x="480" y="0" width="1681" height="1600"/>
  </clipPath>
</defs>
<path clip-path="url(#clip500)" d="M274.481 1367.02 L2352.76 1367.02 L2352.76 47.2441 L274.481 47.2441  Z" fill="#ffffff" fill-rule="evenodd" fill-opacity="1"/>
<defs>
  <clipPath id="clip502">
    <rect x="274" y="47" width="2079" height="1321"/>
  </clipPath>
</defs>
<polyline clip-path="url(#clip500)" style="stroke:#000000; stroke-linecap:round; stroke-linejoin:round; stroke-width:4; stroke-opacity:1; fill:none" points="274.481,1367.02 2352.76,1367.02 "/>
<polyline clip-path="url(#clip500)" style="stroke:#000000; stroke-linecap:round; stroke-linejoin:round; stroke-width:4; stroke-opacity:1; fill:none" points="333.3,1367.02 333.3,1348.12 "/>
<polyline clip-path="url(#clip500)" style="stroke:#000000; stroke-linecap:round; stroke-linejoin:round; stroke-width:4; stroke-opacity:1; fill:none" points="823.459,1367.02 823.459,1348.12 "/>
<polyline clip-path="url(#clip500)" style="stroke:#000000; stroke-linecap:round; stroke-linejoin:round; stroke-width:4; stroke-opacity:1; fill:none" points="1313.62,1367.02 1313.62,1348.12 "/>
<polyline clip-path="url(#clip500)" style="stroke:#000000; stroke-linecap:round; stroke-linejoin:round; stroke-width:4; stroke-opacity:1; fill:none" points="1803.78,1367.02 1803.78,1348.12 "/>
<polyline clip-path="url(#clip500)" style="stroke:#000000; stroke-linecap:round; stroke-linejoin:round; stroke-width:4; stroke-opacity:1; fill:none" points="2293.94,1367.02 2293.94,1348.12 "/>
<path clip-path="url(#clip500)" d="M280.699 1432.37 L332.632 1432.37 L332.632 1439.26 L280.699 1439.26 L280.699 1432.37 Z" fill="#000000" fill-rule="nonzero" fill-opacity="1" /><path clip-path="url(#clip500)" d="M357.342 1454.93 L385.901 1454.93 L385.901 1461.82 L347.499 1461.82 L347.499 1454.93 Q352.157 1450.11 360.178 1442.01 Q368.239 1433.87 370.305 1431.52 Q374.235 1427.1 375.774 1424.07 Q377.354 1420.99 377.354 1418.03 Q377.354 1413.21 373.951 1410.17 Q370.589 1407.13 365.161 1407.13 Q361.312 1407.13 357.018 1408.47 Q352.765 1409.81 347.904 1412.52 L347.904 1404.26 Q352.846 1402.27 357.14 1401.26 Q361.434 1400.25 364.999 1400.25 Q374.397 1400.25 379.987 1404.95 Q385.577 1409.64 385.577 1417.5 Q385.577 1421.23 384.159 1424.59 Q382.782 1427.91 379.096 1432.45 Q378.083 1433.63 372.655 1439.26 Q367.227 1444.85 357.342 1454.93 Z" fill="#000000" fill-rule="nonzero" fill-opacity="1" /><path clip-path="url(#clip500)" d="M770.534 1432.37 L822.467 1432.37 L822.467 1439.26 L770.534 1439.26 L770.534 1432.37 Z" fill="#000000" fill-rule="nonzero" fill-opacity="1" /><path clip-path="url(#clip500)" d="M841.547 1454.93 L854.915 1454.93 L854.915 1408.79 L840.372 1411.71 L840.372 1404.26 L854.834 1401.34 L863.016 1401.34 L863.016 1454.93 L876.384 1454.93 L876.384 1461.82 L841.547 1461.82 L841.547 1454.93 Z" fill="#000000" fill-rule="nonzero" fill-opacity="1" /><path clip-path="url(#clip500)" d="M1313.62 1406.73 Q1307.3 1406.73 1304.1 1412.97 Q1300.94 1419.16 1300.94 1431.64 Q1300.94 1444.08 1304.1 1450.32 Q1307.3 1456.51 1313.62 1456.51 Q1319.98 1456.51 1323.14 1450.32 Q1326.34 1444.08 1326.34 1431.64 Q1326.34 1419.16 1323.14 1412.97 Q1319.98 1406.73 1313.62 1406.73 M1313.62 1400.25 Q1323.79 1400.25 1329.13 1408.31 Q1334.52 1416.33 1334.52 1431.64 Q1334.52 1446.91 1329.13 1454.97 Q1323.79 1462.99 1313.62 1462.99 Q1303.45 1462.99 1298.06 1454.97 Q1292.72 1446.91 1292.72 1431.64 Q1292.72 1416.33 1298.06 1408.31 Q1303.45 1400.25 1313.62 1400.25 Z" fill="#000000" fill-rule="nonzero" fill-opacity="1" /><path clip-path="url(#clip500)" d="M1786.95 1454.93 L1800.31 1454.93 L1800.31 1408.79 L1785.77 1411.71 L1785.77 1404.26 L1800.23 1401.34 L1808.42 1401.34 L1808.42 1454.93 L1821.78 1454.93 L1821.78 1461.82 L1786.95 1461.82 L1786.95 1454.93 Z" fill="#000000" fill-rule="nonzero" fill-opacity="1" /><path clip-path="url(#clip500)" d="M2284.58 1454.93 L2313.14 1454.93 L2313.14 1461.82 L2274.74 1461.82 L2274.74 1454.93 Q2279.39 1450.11 2287.41 1442.01 Q2295.48 1433.87 2297.54 1431.52 Q2301.47 1427.1 2303.01 1424.07 Q2304.59 1420.99 2304.59 1418.03 Q2304.59 1413.21 2301.19 1410.17 Q2297.83 1407.13 2292.4 1407.13 Q2288.55 1407.13 2284.26 1408.47 Q2280 1409.81 2275.14 1412.52 L2275.14 1404.26 Q2280.08 1402.27 2284.38 1401.26 Q2288.67 1400.25 2292.24 1400.25 Q2301.63 1400.25 2307.22 1404.95 Q2312.81 1409.64 2312.81 1417.5 Q2312.81 1421.23 2311.4 1424.59 Q2310.02 1427.91 2306.33 1432.45 Q2305.32 1433.63 2299.89 1439.26 Q2294.46 1444.85 2284.58 1454.93 Z" fill="#000000" fill-rule="nonzero" fill-opacity="1" /><path clip-path="url(#clip500)" d="M1336.81 1522.83 Q1336.81 1525.78 1334.97 1527.47 Q1333.13 1529.1 1331.02 1529.1 Q1329.01 1529.1 1327.96 1527.94 Q1326.91 1526.78 1326.91 1525.31 Q1326.91 1523.31 1328.38 1521.57 Q1329.86 1519.83 1332.07 1519.46 Q1329.91 1518.09 1326.7 1518.09 Q1324.59 1518.09 1322.74 1519.2 Q1320.95 1520.3 1319.84 1521.73 Q1318.79 1523.15 1317.84 1525.2 Q1316.95 1527.21 1316.58 1528.42 Q1316.26 1529.58 1316 1530.84 L1312.31 1545.6 Q1310.52 1552.61 1310.52 1555.08 Q1310.52 1558.14 1311.99 1560.2 Q1313.47 1562.2 1316.42 1562.2 Q1317.58 1562.2 1318.9 1561.88 Q1320.21 1561.51 1321.9 1560.57 Q1323.64 1559.56 1325.17 1558.09 Q1326.75 1556.56 1328.28 1553.98 Q1329.81 1551.4 1330.81 1548.08 Q1331.12 1546.92 1332.18 1546.92 Q1333.49 1546.92 1333.49 1547.97 Q1333.49 1548.87 1332.76 1550.76 Q1332.07 1552.61 1330.54 1555.03 Q1329.07 1557.4 1327.12 1559.56 Q1325.17 1561.67 1322.27 1563.15 Q1319.37 1564.62 1316.21 1564.62 Q1311.68 1564.62 1308.67 1562.2 Q1305.67 1559.78 1304.56 1556.4 Q1304.3 1556.88 1303.93 1557.51 Q1303.56 1558.14 1302.45 1559.56 Q1301.4 1560.93 1300.19 1561.99 Q1298.98 1562.99 1297.08 1563.78 Q1295.23 1564.62 1293.23 1564.62 Q1290.7 1564.62 1288.44 1563.89 Q1286.22 1563.15 1284.64 1561.46 Q1283.06 1559.78 1283.06 1557.46 Q1283.06 1554.87 1284.8 1553.08 Q1286.59 1551.24 1289.01 1551.24 Q1290.54 1551.24 1291.76 1552.13 Q1293.02 1553.03 1293.02 1554.98 Q1293.02 1557.14 1291.54 1558.77 Q1290.07 1560.41 1287.96 1560.83 Q1290.12 1562.2 1293.34 1562.2 Q1296.81 1562.2 1299.55 1559.14 Q1302.3 1556.09 1303.61 1550.97 Q1306.88 1538.69 1308.15 1533.21 Q1309.41 1527.68 1309.41 1525.31 Q1309.41 1523.1 1308.83 1521.57 Q1308.25 1520.04 1307.25 1519.35 Q1306.3 1518.62 1305.4 1518.35 Q1304.56 1518.09 1303.61 1518.09 Q1302.03 1518.09 1300.24 1518.72 Q1298.5 1519.35 1296.39 1520.83 Q1294.34 1522.25 1292.39 1525.2 Q1290.44 1528.15 1289.12 1532.21 Q1288.86 1533.42 1287.7 1533.42 Q1286.43 1533.37 1286.43 1532.32 Q1286.43 1531.42 1287.12 1529.58 Q1287.86 1527.68 1289.33 1525.31 Q1290.86 1522.94 1292.81 1520.83 Q1294.81 1518.67 1297.71 1517.19 Q1300.66 1515.72 1303.82 1515.72 Q1305.25 1515.72 1306.62 1516.03 Q1308.04 1516.3 1309.73 1517.09 Q1311.47 1517.88 1312.99 1519.62 Q1314.52 1521.36 1315.47 1523.89 Q1316.1 1522.67 1316.95 1521.51 Q1317.84 1520.36 1319.21 1518.93 Q1320.64 1517.46 1322.59 1516.61 Q1324.59 1515.72 1326.8 1515.72 Q1328.96 1515.72 1331.07 1516.3 Q1333.18 1516.82 1334.97 1518.56 Q1336.81 1520.25 1336.81 1522.83 Z" fill="#000000" fill-rule="nonzero" fill-opacity="1" /><polyline clip-path="url(#clip500)" style="stroke:#000000; stroke-linecap:round; stroke-linejoin:round; stroke-width:4; stroke-opacity:1; fill:none" points="274.481,1367.02 274.481,47.2441 "/>
<polyline clip-path="url(#clip500)" style="stroke:#000000; stroke-linecap:round; stroke-linejoin:round; stroke-width:4; stroke-opacity:1; fill:none" points="274.481,1332.76 293.379,1332.76 "/>
<polyline clip-path="url(#clip500)" style="stroke:#000000; stroke-linecap:round; stroke-linejoin:round; stroke-width:4; stroke-opacity:1; fill:none" points="274.481,1022.05 293.379,1022.05 "/>
<polyline clip-path="url(#clip500)" style="stroke:#000000; stroke-linecap:round; stroke-linejoin:round; stroke-width:4; stroke-opacity:1; fill:none" points="274.481,711.337 293.379,711.337 "/>
<polyline clip-path="url(#clip500)" style="stroke:#000000; stroke-linecap:round; stroke-linejoin:round; stroke-width:4; stroke-opacity:1; fill:none" points="274.481,400.624 293.379,400.624 "/>
<polyline clip-path="url(#clip500)" style="stroke:#000000; stroke-linecap:round; stroke-linejoin:round; stroke-width:4; stroke-opacity:1; fill:none" points="274.481,89.9117 293.379,89.9117 "/>
<path clip-path="url(#clip500)" d="M217.578 1307.91 Q211.259 1307.91 208.059 1314.15 Q204.899 1320.35 204.899 1332.82 Q204.899 1345.26 208.059 1351.5 Q211.259 1357.69 217.578 1357.69 Q223.938 1357.69 227.098 1351.5 Q230.298 1345.26 230.298 1332.82 Q230.298 1320.35 227.098 1314.15 Q223.938 1307.91 217.578 1307.91 M217.578 1301.43 Q227.746 1301.43 233.093 1309.49 Q238.481 1317.51 238.481 1332.82 Q238.481 1348.09 233.093 1356.16 Q227.746 1364.18 217.578 1364.18 Q207.411 1364.18 202.023 1356.16 Q196.676 1348.09 196.676 1332.82 Q196.676 1317.51 202.023 1309.49 Q207.411 1301.43 217.578 1301.43 Z" fill="#000000" fill-rule="nonzero" fill-opacity="1" /><path clip-path="url(#clip500)" d="M201.901 991.809 L234.025 991.809 L234.025 998.696 L209.396 998.696 L209.396 1013.52 Q211.178 1012.91 212.96 1012.63 Q214.743 1012.31 216.525 1012.31 Q226.652 1012.31 232.567 1017.86 Q238.481 1023.41 238.481 1032.89 Q238.481 1042.65 232.405 1048.08 Q226.328 1053.46 215.269 1053.46 Q211.462 1053.46 207.492 1052.82 Q203.562 1052.17 199.349 1050.87 L199.349 1042.65 Q202.995 1044.63 206.884 1045.61 Q210.773 1046.58 215.107 1046.58 Q222.115 1046.58 226.207 1042.89 Q230.298 1039.2 230.298 1032.89 Q230.298 1026.57 226.207 1022.88 Q222.115 1019.19 215.107 1019.19 Q211.826 1019.19 208.545 1019.92 Q205.304 1020.65 201.901 1022.19 L201.901 991.809 Z" fill="#000000" fill-rule="nonzero" fill-opacity="1" /><path clip-path="url(#clip500)" d="M148.713 734.69 L162.081 734.69 L162.081 688.55 L147.538 691.467 L147.538 684.013 L162 681.097 L170.183 681.097 L170.183 734.69 L183.551 734.69 L183.551 741.577 L148.713 741.577 L148.713 734.69 Z" fill="#000000" fill-rule="nonzero" fill-opacity="1" /><path clip-path="url(#clip500)" d="M217.578 686.484 Q211.259 686.484 208.059 692.723 Q204.899 698.921 204.899 711.397 Q204.899 723.834 208.059 730.072 Q211.259 736.27 217.578 736.27 Q223.938 736.27 227.098 730.072 Q230.298 723.834 230.298 711.397 Q230.298 698.921 227.098 692.723 Q223.938 686.484 217.578 686.484 M217.578 680.003 Q227.746 680.003 233.093 688.064 Q238.481 696.085 238.481 711.397 Q238.481 726.669 233.093 734.731 Q227.746 742.751 217.578 742.751 Q207.411 742.751 202.023 734.731 Q196.676 726.669 196.676 711.397 Q196.676 696.085 202.023 688.064 Q207.411 680.003 217.578 680.003 Z" fill="#000000" fill-rule="nonzero" fill-opacity="1" /><path clip-path="url(#clip500)" d="M150.455 423.978 L163.823 423.978 L163.823 377.838 L149.28 380.754 L149.28 373.301 L163.742 370.384 L171.925 370.384 L171.925 423.978 L185.293 423.978 L185.293 430.864 L150.455 430.864 L150.455 423.978 Z" fill="#000000" fill-rule="nonzero" fill-opacity="1" /><path clip-path="url(#clip500)" d="M201.901 370.384 L234.025 370.384 L234.025 377.271 L209.396 377.271 L209.396 392.097 Q211.178 391.489 212.96 391.206 Q214.743 390.882 216.525 390.882 Q226.652 390.882 232.567 396.431 Q238.481 401.981 238.481 411.46 Q238.481 421.223 232.405 426.651 Q226.328 432.039 215.269 432.039 Q211.462 432.039 207.492 431.391 Q203.562 430.743 199.349 429.446 L199.349 421.223 Q202.995 423.208 206.884 424.18 Q210.773 425.152 215.107 425.152 Q222.115 425.152 226.207 421.466 Q230.298 417.78 230.298 411.46 Q230.298 405.141 226.207 401.455 Q222.115 397.768 215.107 397.768 Q211.826 397.768 208.545 398.497 Q205.304 399.227 201.901 400.766 L201.901 370.384 Z" fill="#000000" fill-rule="nonzero" fill-opacity="1" /><path clip-path="url(#clip500)" d="M154.344 113.265 L182.903 113.265 L182.903 120.152 L144.5 120.152 L144.5 113.265 Q149.159 108.445 157.179 100.343 Q165.241 92.2005 167.307 89.851 Q171.236 85.4355 172.775 82.3973 Q174.355 79.3186 174.355 76.3614 Q174.355 71.5409 170.953 68.5027 Q167.59 65.4645 162.162 65.4645 Q158.314 65.4645 154.02 66.8013 Q149.766 68.1381 144.905 70.8522 L144.905 62.5884 Q149.847 60.6034 154.141 59.5907 Q158.435 58.578 162 58.578 Q171.398 58.578 176.988 63.277 Q182.579 67.9761 182.579 75.8348 Q182.579 79.5617 181.161 82.9239 Q179.784 86.2456 176.097 90.7827 Q175.084 91.9574 169.656 97.5882 Q164.228 103.178 154.344 113.265 Z" fill="#000000" fill-rule="nonzero" fill-opacity="1" /><path clip-path="url(#clip500)" d="M217.578 65.0594 Q211.259 65.0594 208.059 71.2978 Q204.899 77.4957 204.899 89.9725 Q204.899 102.409 208.059 108.647 Q211.259 114.845 217.578 114.845 Q223.938 114.845 227.098 108.647 Q230.298 102.409 230.298 89.9725 Q230.298 77.4957 227.098 71.2978 Q223.938 65.0594 217.578 65.0594 M217.578 58.578 Q227.746 58.578 233.093 66.6393 Q238.481 74.6601 238.481 89.9725 Q238.481 105.244 233.093 113.306 Q227.746 121.326 217.578 121.326 Q207.411 121.326 202.023 113.306 Q196.676 105.244 196.676 89.9725 Q196.676 74.6601 202.023 66.6393 Q207.411 58.578 217.578 58.578 Z" fill="#000000" fill-rule="nonzero" fill-opacity="1" /><path clip-path="url(#clip500)" d="M42.9106 805.702 Q43.6484 805.702 45.3875 806.177 L86.5993 816.506 Q95.7692 818.772 102.199 826.15 Q108.628 833.475 108.628 841.802 Q108.628 846.809 105.94 850.023 Q103.305 853.238 99.2474 853.238 Q95.6638 853.238 93.9247 851.341 Q92.2383 849.444 92.2383 847.178 Q92.2383 846.44 92.4491 845.649 Q92.6599 844.859 93.5558 844.016 Q94.4517 843.172 95.98 843.172 Q98.4569 843.172 100.407 845.333 Q101.303 846.387 101.514 847.388 Q101.724 848.337 101.724 849.971 Q103.2 849.338 104.201 848.179 Q105.203 847.019 105.572 845.702 Q105.993 844.384 106.099 843.541 Q106.257 842.645 106.257 841.802 Q106.257 835.056 99.4582 829.892 Q97.4029 828.363 95.3476 827.257 Q93.345 826.097 90.8681 825.254 Q88.4438 824.411 87.1263 824.042 Q85.8088 823.62 82.8049 822.883 Q87.706 827.784 87.706 833.792 Q87.706 836.321 87.0209 838.587 Q86.3358 840.801 84.9129 842.751 Q83.4373 844.701 80.855 845.86 Q78.2726 846.967 74.8471 846.967 Q71.2108 846.967 66.2569 845.544 Q61.3031 844.121 52.1859 840.695 Q47.0739 838.851 44.597 838.851 Q43.3849 838.851 42.6471 839.114 Q41.8566 839.378 41.5931 839.905 Q41.2769 840.432 41.2242 840.748 Q41.1715 841.012 41.1715 841.539 Q41.1715 844.648 44.3335 847.546 Q47.4956 850.445 54.5574 852.448 Q55.8749 852.869 56.1911 853.133 Q56.5073 853.396 56.5073 854.187 Q56.4546 855.504 55.4006 855.504 Q54.979 855.504 53.3453 855.03 Q51.6589 854.556 49.182 853.449 Q46.6523 852.289 44.3862 850.708 Q42.0674 849.127 40.4337 846.651 Q38.8 844.121 38.8 841.222 Q38.8 837.27 41.3823 834.846 Q43.9119 832.369 47.6537 832.369 Q49.182 832.369 50.5522 832.79 Q51.8697 833.159 55.4006 834.529 Q69.6298 840.063 76.5862 840.063 Q78.2726 840.063 79.6956 839.799 Q81.0658 839.483 82.436 838.798 Q83.7535 838.113 84.544 836.743 Q85.2818 835.32 85.2818 833.37 Q85.2818 830.893 84.1224 828.574 Q82.9103 826.203 81.2766 824.727 Q79.6429 823.199 78.2726 822.303 Q76.8497 821.354 76.1119 821.143 L56.7181 816.295 L48.0753 814.134 Q43.3849 813.133 42.2255 812.659 Q41.1188 812.026 40.5391 810.92 Q39.9594 809.813 39.9594 808.864 Q39.9594 807.547 40.7499 806.651 Q41.5404 805.702 42.9106 805.702 Z" fill="#000000" fill-rule="nonzero" fill-opacity="1" /><path clip-path="url(#clip500)" d="M70.1041 773.212 Q68.7866 773.107 68.7866 771.051 L68.7866 704.912 Q68.7866 701.803 69.9987 701.75 Q71.3162 701.75 71.2635 704.701 L71.2635 770.314 Q71.3162 773.212 70.1041 773.212 M49.0239 773.212 Q47.7064 773.212 47.7591 770.946 L47.7591 705.018 Q47.7591 701.803 49.0239 701.75 Q50.236 701.75 50.236 704.491 L50.236 771.051 Q50.236 773.212 49.0239 773.212 Z" fill="#000000" fill-rule="nonzero" fill-opacity="1" /><path clip-path="url(#clip500)" d="M74.0039 619.073 Q74.4782 618.651 74.9525 618.651 Q75.4268 618.651 76.797 619.705 Q78.1672 620.706 80.0118 622.867 Q81.8563 625.028 83.5954 627.821 Q85.3345 630.614 86.4939 634.725 Q87.706 638.835 87.706 643.157 Q87.706 650.904 82.1725 655.541 Q76.6389 660.126 68.1541 660.126 Q62.726 660.126 57.9303 658.334 Q53.0818 656.543 49.6563 653.644 Q46.2307 650.693 43.7538 647.004 Q41.2242 643.262 40.0121 639.362 Q38.8 635.462 38.8 631.826 Q38.8 626.503 41.4877 623.394 Q44.1754 620.285 47.9699 620.285 Q48.8658 620.285 49.9725 620.548 Q51.0792 620.759 52.8183 621.497 Q54.5574 622.182 56.2965 623.974 Q57.983 625.766 59.0897 628.401 Q61.5666 634.25 61.5666 644.896 L61.5666 650.64 Q68.365 652.327 72.7918 652.327 Q74.5309 652.327 76.3227 652.01 Q78.0618 651.694 80.2753 650.851 Q82.4887 649.955 83.9116 647.952 Q85.2818 645.897 85.2818 642.946 Q85.2818 641.997 85.2291 640.996 Q85.1764 639.942 84.5967 637.307 Q84.017 634.619 83.0157 632.248 Q82.0144 629.876 79.8537 626.872 Q77.6402 623.816 74.6363 621.391 Q73.5296 620.548 73.5296 619.969 Q73.5296 619.494 74.0039 619.073 M47.9699 623.868 Q45.0713 623.868 43.1214 626.029 Q41.1715 628.137 41.1715 631.826 Q41.1715 632.986 41.435 634.408 Q41.6985 635.831 42.8052 638.203 Q43.9119 640.522 45.7564 642.577 Q47.5483 644.632 51.0792 646.688 Q54.5574 648.743 59.1951 649.955 L59.1951 645.528 Q59.1951 644 59.1951 642.893 Q59.1424 641.787 58.9316 639.362 Q58.7208 636.885 58.3519 635.094 Q57.9303 633.302 57.087 631.036 Q56.2438 628.769 55.1371 627.347 Q53.9777 625.871 52.1332 624.87 Q50.2887 623.868 47.9699 623.868 Z" fill="#000000" fill-rule="nonzero" fill-opacity="1" /><path clip-path="url(#clip500)" d="M19.931 569.916 Q21.9969 569.916 23.1774 571.207 Q24.321 572.498 24.321 573.974 Q24.321 575.375 23.5094 576.113 Q22.6978 576.851 21.6649 576.851 Q20.263 576.851 19.0456 575.818 Q17.8283 574.785 17.57 573.236 Q16.6109 574.748 16.6109 576.999 Q16.6109 578.474 17.3856 579.765 Q18.1603 581.02 19.1563 581.794 Q20.1524 582.532 21.5911 583.196 Q22.9929 583.823 23.8414 584.082 Q24.653 584.303 25.5383 584.487 L35.8676 587.07 Q40.7741 588.324 42.5079 588.324 Q44.6475 588.324 46.0863 587.291 Q47.4881 586.258 47.4881 584.192 Q47.4881 583.381 47.2668 582.458 Q47.0085 581.536 46.3445 580.356 Q45.6436 579.138 44.6107 578.068 Q43.5408 576.962 41.7332 575.892 Q39.9256 574.822 37.6015 574.121 Q36.7899 573.9 36.7899 573.162 Q36.7899 572.24 37.5277 572.24 Q38.1548 572.24 39.4829 572.756 Q40.7741 573.236 42.471 574.306 Q44.1311 575.339 45.6436 576.703 Q47.1192 578.068 48.1521 580.097 Q49.1851 582.126 49.1851 584.34 Q49.1851 587.512 47.4881 589.615 Q45.7911 591.718 43.4302 592.493 Q43.7622 592.677 44.2049 592.935 Q44.6475 593.193 45.6436 593.968 Q46.6027 594.706 47.3405 595.554 Q48.0415 596.403 48.5948 597.731 Q49.1851 599.022 49.1851 600.424 Q49.1851 602.195 48.6686 603.781 Q48.1521 605.33 46.9716 606.437 Q45.7911 607.544 44.168 607.544 Q42.3603 607.544 41.1061 606.326 Q39.8149 605.072 39.8149 603.375 Q39.8149 602.305 40.442 601.457 Q41.0692 600.572 42.4341 600.572 Q43.9466 600.572 45.0902 601.604 Q46.2338 602.637 46.529 604.113 Q47.4881 602.6 47.4881 600.35 Q47.4881 597.915 45.3485 595.997 Q43.2088 594.079 39.6305 593.157 Q31.035 590.869 27.1984 589.984 Q23.3249 589.099 21.6649 589.099 Q20.1155 589.099 19.0456 589.504 Q17.9758 589.91 17.4962 590.611 Q16.9798 591.275 16.7953 591.902 Q16.6109 592.493 16.6109 593.157 Q16.6109 594.263 17.0536 595.518 Q17.4962 596.735 18.5292 598.211 Q19.5252 599.649 21.5911 601.014 Q23.6569 602.379 26.4975 603.301 Q27.346 603.486 27.346 604.297 Q27.3091 605.183 26.5713 605.183 Q25.9441 605.183 24.653 604.703 Q23.3249 604.187 21.6649 603.154 Q20.0048 602.084 18.5292 600.719 Q17.0167 599.317 15.9837 597.288 Q14.9508 595.222 14.9508 593.009 Q14.9508 592.013 15.1722 591.054 Q15.3566 590.058 15.91 588.877 Q16.4633 587.66 17.6807 586.59 Q18.8981 585.52 20.6688 584.856 Q19.8203 584.414 19.0088 583.823 Q18.1972 583.196 17.2011 582.237 Q16.1682 581.241 15.5779 579.876 Q14.9508 578.474 14.9508 576.925 Q14.9508 575.412 15.3566 573.937 Q15.7255 572.461 16.9429 571.207 Q18.1234 569.916 19.931 569.916 Z" fill="#000000" fill-rule="nonzero" fill-opacity="1" /><polyline clip-path="url(#clip502)" style="stroke:#6c8ebf; stroke-linecap:round; stroke-linejoin:round; stroke-width:12; stroke-opacity:1; fill:none" points="333.3,1324.35 338.202,1324.27 343.103,1324.18 348.005,1324.1 352.907,1324.01 357.808,1323.92 362.71,1323.83 367.611,1323.74 372.513,1323.65 377.415,1323.56 382.316,1323.47 387.218,1323.37 392.119,1323.28 397.021,1323.18 401.923,1323.09 406.824,1322.99 411.726,1322.89 416.627,1322.79 421.529,1322.69 426.43,1322.59 431.332,1322.49 436.234,1322.39 441.135,1322.28 446.037,1322.18 450.938,1322.07 455.84,1321.96 460.742,1321.85 465.643,1321.74 470.545,1321.63 475.446,1321.52 480.348,1321.41 485.25,1321.3 490.151,1321.18 495.053,1321.06 499.954,1320.95 504.856,1320.83 509.758,1320.71 514.659,1320.59 519.561,1320.46 524.462,1320.34 529.364,1320.22 534.265,1320.09 539.167,1319.96 544.069,1319.83 548.97,1319.7 553.872,1319.57 558.773,1319.44 563.675,1319.31 568.577,1319.17 573.478,1319.03 578.38,1318.9 583.281,1318.76 588.183,1318.62 593.085,1318.47 597.986,1318.33 602.888,1318.18 607.789,1318.04 612.691,1317.89 617.593,1317.74 622.494,1317.59 627.396,1317.44 632.297,1317.28 637.199,1317.13 642.1,1316.97 647.002,1316.81 651.904,1316.65 656.805,1316.49 661.707,1316.33 666.608,1316.16 671.51,1315.99 676.412,1315.83 681.313,1315.66 686.215,1315.48 691.116,1315.31 696.018,1315.13 700.92,1314.96 705.821,1314.78 710.723,1314.6 715.624,1314.42 720.526,1314.23 725.428,1314.04 730.329,1313.86 735.231,1313.67 740.132,1313.47 745.034,1313.28 749.936,1313.08 754.837,1312.89 759.739,1312.69 764.64,1312.49 769.542,1312.28 774.443,1312.08 779.345,1311.87 784.247,1311.66 789.148,1311.45 794.05,1311.23 798.951,1311.02 803.853,1310.8 808.755,1310.58 813.656,1310.35 818.558,1310.13 823.459,1309.9 828.361,1309.67 833.263,1309.44 838.164,1309.2 843.066,1308.97 847.967,1308.73 852.869,1308.49 857.771,1308.24 862.672,1308 867.574,1307.75 872.475,1307.5 877.377,1307.24 882.278,1306.99 887.18,1306.73 892.082,1306.47 896.983,1306.2 901.885,1305.93 906.786,1305.66 911.688,1305.39 916.59,1305.12 921.491,1304.84 926.393,1304.56 931.294,1304.28 936.196,1303.99 941.098,1303.7 945.999,1303.41 950.901,1303.11 955.802,1302.81 960.704,1302.51 965.606,1302.21 970.507,1301.9 975.409,1301.59 980.31,1301.28 985.212,1300.96 990.113,1300.64 995.015,1300.32 999.917,1299.99 1004.82,1299.67 1009.72,1299.33 1014.62,1299 1019.52,1298.66 1024.42,1298.31 1029.33,1297.97 1034.23,1297.62 1039.13,1297.27 1044.03,1296.91 1048.93,1296.55 1053.83,1296.18 1058.74,1295.82 1063.64,1295.45 1068.54,1295.07 1073.44,1294.69 1078.34,1294.31 1083.24,1293.92 1088.15,1293.53 1093.05,1293.14 1097.95,1292.74 1102.85,1292.34 1107.75,1291.93 1112.65,1291.52 1117.55,1291.11 1122.46,1290.69 1127.36,1290.26 1132.26,1289.84 1137.16,1289.41 1142.06,1288.97 1146.96,1288.53 1151.87,1288.09 1156.77,1287.64 1161.67,1287.18 1166.57,1286.73 1171.47,1286.26 1176.37,1285.8 1181.28,1285.32 1186.18,1284.85 1191.08,1284.36 1195.98,1283.88 1200.88,1283.39 1205.78,1282.89 1210.69,1282.39 1215.59,1281.88 1220.49,1281.37 1225.39,1280.86 1230.29,1280.33 1235.19,1279.81 1240.09,1279.28 1245,1278.74 1249.9,1278.19 1254.8,1277.65 1259.7,1277.09 1264.6,1276.53 1269.5,1275.97 1274.41,1275.4 1279.31,1274.82 1284.21,1274.24 1289.11,1273.65 1294.01,1273.06 1298.91,1272.46 1303.82,1271.85 1308.72,1271.24 1313.62,1270.62 1318.52,1269.99 1323.42,1269.36 1328.32,1268.73 1333.22,1268.08 1338.13,1267.43 1343.03,1266.78 1347.93,1266.11 1352.83,1265.44 1357.73,1264.77 1362.63,1264.08 1367.54,1263.39 1372.44,1262.7 1377.34,1261.99 1382.24,1261.28 1387.14,1260.56 1392.04,1259.84 1396.95,1259.1 1401.85,1258.36 1406.75,1257.62 1411.65,1256.86 1416.55,1256.1 1421.45,1255.33 1426.36,1254.55 1431.26,1253.76 1436.16,1252.97 1441.06,1252.17 1445.96,1251.36 1450.86,1250.54 1455.76,1249.71 1460.67,1248.88 1465.57,1248.03 1470.47,1247.18 1475.37,1246.32 1480.27,1245.45 1485.17,1244.58 1490.08,1243.69 1494.98,1242.8 1499.88,1241.89 1504.78,1240.98 1509.68,1240.06 1514.58,1239.12 1519.49,1238.18 1524.39,1237.23 1529.29,1236.27 1534.19,1235.3 1539.09,1234.32 1543.99,1233.33 1548.89,1232.33 1553.8,1231.33 1558.7,1230.31 1563.6,1229.28 1568.5,1228.24 1573.4,1227.19 1578.3,1226.12 1583.21,1225.05 1588.11,1223.97 1593.01,1222.88 1597.91,1221.77 1602.81,1220.66 1607.71,1219.53 1612.62,1218.39 1617.52,1217.24 1622.42,1216.08 1627.32,1214.91 1632.22,1213.73 1637.12,1212.53 1642.03,1211.32 1646.93,1210.1 1651.83,1208.87 1656.73,1207.62 1661.63,1206.36 1666.53,1205.09 1671.43,1203.81 1676.34,1202.51 1681.24,1201.21 1686.14,1199.88 1691.04,1198.55 1695.94,1197.2 1700.84,1195.84 1705.75,1194.46 1710.65,1193.07 1715.55,1191.67 1720.45,1190.25 1725.35,1188.82 1730.25,1187.37 1735.16,1185.91 1740.06,1184.43 1744.96,1182.94 1749.86,1181.44 1754.76,1179.92 1759.66,1178.38 1764.56,1176.83 1769.47,1175.26 1774.37,1173.68 1779.27,1172.08 1784.17,1170.46 1789.07,1168.83 1793.97,1167.19 1798.88,1165.52 1803.78,1163.84 1808.68,1162.14 1813.58,1160.43 1818.48,1158.7 1823.38,1156.95 1828.29,1155.18 1833.19,1153.4 1838.09,1151.59 1842.99,1149.77 1847.89,1147.93 1852.79,1146.08 1857.7,1144.2 1862.6,1142.3 1867.5,1140.39 1872.4,1138.46 1877.3,1136.5 1882.2,1134.53 1887.1,1132.54 1892.01,1130.53 1896.91,1128.49 1901.81,1126.44 1906.71,1124.37 1911.61,1122.27 1916.51,1120.16 1921.42,1118.02 1926.32,1115.86 1931.22,1113.68 1936.12,1111.48 1941.02,1109.26 1945.92,1107.01 1950.83,1104.74 1955.73,1102.45 1960.63,1100.14 1965.53,1097.8 1970.43,1095.44 1975.33,1093.05 1980.23,1090.64 1985.14,1088.21 1990.04,1085.75 1994.94,1083.27 1999.84,1080.76 2004.74,1078.23 2009.64,1075.67 2014.55,1073.09 2019.45,1070.48 2024.35,1067.84 2029.25,1065.18 2034.15,1062.49 2039.05,1059.77 2043.96,1057.03 2048.86,1054.26 2053.76,1051.46 2058.66,1048.63 2063.56,1045.78 2068.46,1042.89 2073.37,1039.98 2078.27,1037.04 2083.17,1034.06 2088.07,1031.06 2092.97,1028.03 2097.87,1024.97 2102.77,1021.87 2107.68,1018.75 2112.58,1015.59 2117.48,1012.41 2122.38,1009.19 2127.28,1005.93 2132.18,1002.65 2137.09,999.333 2141.99,995.982 2146.89,992.597 2151.79,989.178 2156.69,985.725 2161.59,982.237 2166.5,978.714 2171.4,975.156 2176.3,971.562 2181.2,967.932 2186.1,964.266 2191,960.562 2195.9,956.821 2200.81,953.043 2205.71,949.227 2210.61,945.372 2215.51,941.479 2220.41,937.547 2225.31,933.575 2230.22,929.563 2235.12,925.51 2240.02,921.418 2244.92,917.283 2249.82,913.108 2254.72,908.89 2259.63,904.63 2264.53,900.327 2269.43,895.981 2274.33,891.592 2279.23,887.158 2284.13,882.679 2289.04,878.156 2293.94,873.587 "/>
<polyline clip-path="url(#clip502)" style="stroke:#c0a34d; stroke-linecap:round; stroke-linejoin:round; stroke-width:12; stroke-opacity:1; fill:none" points="333.3,1329.67 338.202,1329.62 343.103,1329.57 348.005,1329.53 352.907,1329.48 357.808,1329.43 362.71,1329.38 367.611,1329.33 372.513,1329.27 377.415,1329.22 382.316,1329.17 387.218,1329.11 392.119,1329.06 397.021,1329 401.923,1328.94 406.824,1328.89 411.726,1328.83 416.627,1328.77 421.529,1328.71 426.43,1328.65 431.332,1328.59 436.234,1328.52 441.135,1328.46 446.037,1328.39 450.938,1328.33 455.84,1328.26 460.742,1328.19 465.643,1328.12 470.545,1328.05 475.446,1327.98 480.348,1327.91 485.25,1327.84 490.151,1327.76 495.053,1327.69 499.954,1327.61 504.856,1327.53 509.758,1327.45 514.659,1327.37 519.561,1327.29 524.462,1327.21 529.364,1327.12 534.265,1327.04 539.167,1326.95 544.069,1326.86 548.97,1326.78 553.872,1326.69 558.773,1326.59 563.675,1326.5 568.577,1326.41 573.478,1326.31 578.38,1326.21 583.281,1326.11 588.183,1326.01 593.085,1325.91 597.986,1325.81 602.888,1325.7 607.789,1325.6 612.691,1325.49 617.593,1325.38 622.494,1325.27 627.396,1325.15 632.297,1325.04 637.199,1324.92 642.1,1324.8 647.002,1324.68 651.904,1324.56 656.805,1324.44 661.707,1324.31 666.608,1324.18 671.51,1324.05 676.412,1323.92 681.313,1323.79 686.215,1323.65 691.116,1323.51 696.018,1323.37 700.92,1323.23 705.821,1323.09 710.723,1322.94 715.624,1322.79 720.526,1322.64 725.428,1322.49 730.329,1322.33 735.231,1322.18 740.132,1322.02 745.034,1321.85 749.936,1321.69 754.837,1321.52 759.739,1321.35 764.64,1321.18 769.542,1321 774.443,1320.83 779.345,1320.65 784.247,1320.46 789.148,1320.28 794.05,1320.09 798.951,1319.9 803.853,1319.7 808.755,1319.51 813.656,1319.31 818.558,1319.1 823.459,1318.9 828.361,1318.69 833.263,1318.47 838.164,1318.26 843.066,1318.04 847.967,1317.82 852.869,1317.59 857.771,1317.36 862.672,1317.13 867.574,1316.89 872.475,1316.65 877.377,1316.41 882.278,1316.16 887.18,1315.91 892.082,1315.66 896.983,1315.4 901.885,1315.13 906.786,1314.87 911.688,1314.6 916.59,1314.32 921.491,1314.04 926.393,1313.76 931.294,1313.47 936.196,1313.18 941.098,1312.89 945.999,1312.59 950.901,1312.28 955.802,1311.97 960.704,1311.66 965.606,1311.34 970.507,1311.02 975.409,1310.69 980.31,1310.35 985.212,1310.01 990.113,1309.67 995.015,1309.32 999.917,1308.97 1004.82,1308.61 1009.72,1308.24 1014.62,1307.87 1019.52,1307.5 1024.42,1307.11 1029.33,1306.73 1034.23,1306.33 1039.13,1305.93 1044.03,1305.53 1048.93,1305.12 1053.83,1304.7 1058.74,1304.28 1063.64,1303.84 1068.54,1303.41 1073.44,1302.96 1078.34,1302.51 1083.24,1302.06 1088.15,1301.59 1093.05,1301.12 1097.95,1300.64 1102.85,1300.16 1107.75,1299.67 1112.65,1299.16 1117.55,1298.66 1122.46,1298.14 1127.36,1297.62 1132.26,1297.09 1137.16,1296.55 1142.06,1296 1146.96,1295.45 1151.87,1294.88 1156.77,1294.31 1161.67,1293.73 1166.57,1293.14 1171.47,1292.54 1176.37,1291.93 1181.28,1291.31 1186.18,1290.69 1191.08,1290.05 1195.98,1289.41 1200.88,1288.75 1205.78,1288.09 1210.69,1287.41 1215.59,1286.73 1220.49,1286.03 1225.39,1285.32 1230.29,1284.61 1235.19,1283.88 1240.09,1283.14 1245,1282.39 1249.9,1281.63 1254.8,1280.86 1259.7,1280.07 1264.6,1279.28 1269.5,1278.47 1274.41,1277.65 1279.31,1276.81 1284.21,1275.97 1289.11,1275.11 1294.01,1274.24 1298.91,1273.35 1303.82,1272.46 1308.72,1271.54 1313.62,1270.62 1318.52,1269.68 1323.42,1268.73 1328.32,1267.76 1333.22,1266.78 1338.13,1265.78 1343.03,1264.77 1347.93,1263.74 1352.83,1262.7 1357.73,1261.64 1362.63,1260.56 1367.54,1259.47 1372.44,1258.36 1377.34,1257.24 1382.24,1256.1 1387.14,1254.94 1392.04,1253.76 1396.95,1252.57 1401.85,1251.36 1406.75,1250.13 1411.65,1248.88 1416.55,1247.61 1421.45,1246.32 1426.36,1245.02 1431.26,1243.69 1436.16,1242.34 1441.06,1240.98 1445.96,1239.59 1450.86,1238.18 1455.76,1236.75 1460.67,1235.3 1465.57,1233.83 1470.47,1232.33 1475.37,1230.82 1480.27,1229.28 1485.17,1227.71 1490.08,1226.12 1494.98,1224.51 1499.88,1222.88 1504.78,1221.22 1509.68,1219.53 1514.58,1217.82 1519.49,1216.08 1524.39,1214.32 1529.29,1212.53 1534.19,1210.71 1539.09,1208.87 1543.99,1206.99 1548.89,1205.09 1553.8,1203.16 1558.7,1201.21 1563.6,1199.22 1568.5,1197.2 1573.4,1195.15 1578.3,1193.07 1583.21,1190.96 1588.11,1188.82 1593.01,1186.64 1597.91,1184.43 1602.81,1182.19 1607.71,1179.92 1612.62,1177.61 1617.52,1175.26 1622.42,1172.88 1627.32,1170.46 1632.22,1168.01 1637.12,1165.52 1642.03,1162.99 1646.93,1160.43 1651.83,1157.82 1656.73,1155.18 1661.63,1152.5 1666.53,1149.77 1671.43,1147.01 1676.34,1144.2 1681.24,1141.35 1686.14,1138.46 1691.04,1135.52 1695.94,1132.54 1700.84,1129.51 1705.75,1126.44 1710.65,1123.32 1715.55,1120.16 1720.45,1116.94 1725.35,1113.68 1730.25,1110.37 1735.16,1107.01 1740.06,1103.6 1744.96,1100.14 1749.86,1096.62 1754.76,1093.05 1759.66,1089.43 1764.56,1085.75 1769.47,1082.02 1774.37,1078.23 1779.27,1074.38 1784.17,1070.48 1789.07,1066.51 1793.97,1062.49 1798.88,1058.4 1803.78,1054.26 1808.68,1050.05 1813.58,1045.78 1818.48,1041.44 1823.38,1037.04 1828.29,1032.57 1833.19,1028.03 1838.09,1023.42 1842.99,1018.75 1847.89,1014 1852.79,1009.19 1857.7,1004.3 1862.6,999.333 1867.5,994.293 1872.4,989.178 1877.3,983.986 1882.2,978.714 1887.1,973.364 1892.01,967.932 1896.91,962.418 1901.81,956.821 1906.71,951.14 1911.61,945.372 1916.51,939.518 1921.42,933.575 1926.32,927.542 1931.22,921.418 1936.12,915.201 1941.02,908.89 1945.92,902.484 1950.83,895.981 1955.73,889.38 1960.63,882.679 1965.53,875.877 1970.43,868.972 1975.33,861.963 1980.23,854.848 1985.14,847.625 1990.04,840.293 1994.94,832.851 1999.84,825.295 2004.74,817.626 2009.64,809.841 2014.55,801.938 2019.45,793.915 2024.35,785.772 2029.25,777.505 2034.15,769.114 2039.05,760.595 2043.96,751.948 2048.86,743.17 2053.76,734.259 2058.66,725.214 2063.56,716.032 2068.46,706.712 2073.37,697.25 2078.27,687.646 2083.17,677.896 2088.07,667.999 2092.97,657.952 2097.87,647.754 2102.77,637.401 2107.68,626.892 2112.58,616.224 2117.48,605.395 2122.38,594.403 2127.28,583.244 2132.18,571.916 2137.09,560.418 2141.99,548.745 2146.89,536.896 2151.79,524.868 2156.69,512.659 2161.59,500.264 2166.5,487.683 2171.4,474.911 2176.3,461.946 2181.2,448.785 2186.1,435.426 2191,421.864 2195.9,408.098 2200.81,394.123 2205.71,379.938 2210.61,365.538 2215.51,350.92 2220.41,336.081 2225.31,321.018 2230.22,305.728 2235.12,290.206 2240.02,274.45 2244.92,258.456 2249.82,242.22 2254.72,225.738 2259.63,209.008 2264.53,192.024 2269.43,174.784 2274.33,157.284 2279.23,139.519 2284.13,121.485 2289.04,103.179 2293.94,84.5962 "/>
<polyline clip-path="url(#clip502)" style="stroke:#780000; stroke-linecap:round; stroke-linejoin:round; stroke-width:12; stroke-opacity:1; fill:none" points="333.3,873.587 338.202,878.156 343.103,882.679 348.005,887.158 352.907,891.592 357.808,895.981 362.71,900.327 367.611,904.63 372.513,908.89 377.415,913.108 382.316,917.283 387.218,921.418 392.119,925.51 397.021,929.563 401.923,933.575 406.824,937.547 411.726,941.479 416.627,945.372 421.529,949.227 426.43,953.043 431.332,956.821 436.234,960.562 441.135,964.266 446.037,967.932 450.938,971.562 455.84,975.156 460.742,978.714 465.643,982.237 470.545,985.725 475.446,989.178 480.348,992.597 485.25,995.982 490.151,999.333 495.053,1002.65 499.954,1005.93 504.856,1009.19 509.758,1012.41 514.659,1015.59 519.561,1018.75 524.462,1021.87 529.364,1024.97 534.265,1028.03 539.167,1031.06 544.069,1034.06 548.97,1037.04 553.872,1039.98 558.773,1042.89 563.675,1045.78 568.577,1048.63 573.478,1051.46 578.38,1054.26 583.281,1057.03 588.183,1059.77 593.085,1062.49 597.986,1065.18 602.888,1067.84 607.789,1070.48 612.691,1073.09 617.593,1075.67 622.494,1078.23 627.396,1080.76 632.297,1083.27 637.199,1085.75 642.1,1088.21 647.002,1090.64 651.904,1093.05 656.805,1095.44 661.707,1097.8 666.608,1100.14 671.51,1102.45 676.412,1104.74 681.313,1107.01 686.215,1109.26 691.116,1111.48 696.018,1113.68 700.92,1115.86 705.821,1118.02 710.723,1120.16 715.624,1122.27 720.526,1124.37 725.428,1126.44 730.329,1128.49 735.231,1130.53 740.132,1132.54 745.034,1134.53 749.936,1136.5 754.837,1138.46 759.739,1140.39 764.64,1142.3 769.542,1144.2 774.443,1146.08 779.345,1147.93 784.247,1149.77 789.148,1151.59 794.05,1153.4 798.951,1155.18 803.853,1156.95 808.755,1158.7 813.656,1160.43 818.558,1162.14 823.459,1163.84 828.361,1165.52 833.263,1167.19 838.164,1168.83 843.066,1170.46 847.967,1172.08 852.869,1173.68 857.771,1175.26 862.672,1176.83 867.574,1178.38 872.475,1179.92 877.377,1181.44 882.278,1182.94 887.18,1184.43 892.082,1185.91 896.983,1187.37 901.885,1188.82 906.786,1190.25 911.688,1191.67 916.59,1193.07 921.491,1194.46 926.393,1195.84 931.294,1197.2 936.196,1198.55 941.098,1199.88 945.999,1201.21 950.901,1202.51 955.802,1203.81 960.704,1205.09 965.606,1206.36 970.507,1207.62 975.409,1208.87 980.31,1210.1 985.212,1211.32 990.113,1212.53 995.015,1213.73 999.917,1214.91 1004.82,1216.08 1009.72,1217.24 1014.62,1218.39 1019.52,1219.53 1024.42,1220.66 1029.33,1221.77 1034.23,1222.88 1039.13,1223.97 1044.03,1225.05 1048.93,1226.12 1053.83,1227.19 1058.74,1228.24 1063.64,1229.28 1068.54,1230.31 1073.44,1231.33 1078.34,1232.33 1083.24,1233.33 1088.15,1234.32 1093.05,1235.3 1097.95,1236.27 1102.85,1237.23 1107.75,1238.18 1112.65,1239.12 1117.55,1240.06 1122.46,1240.98 1127.36,1241.89 1132.26,1242.8 1137.16,1243.69 1142.06,1244.58 1146.96,1245.45 1151.87,1246.32 1156.77,1247.18 1161.67,1248.03 1166.57,1248.88 1171.47,1249.71 1176.37,1250.54 1181.28,1251.36 1186.18,1252.17 1191.08,1252.97 1195.98,1253.76 1200.88,1254.55 1205.78,1255.33 1210.69,1256.1 1215.59,1256.86 1220.49,1257.62 1225.39,1258.36 1230.29,1259.1 1235.19,1259.84 1240.09,1260.56 1245,1261.28 1249.9,1261.99 1254.8,1262.7 1259.7,1263.39 1264.6,1264.08 1269.5,1264.77 1274.41,1265.44 1279.31,1266.11 1284.21,1266.78 1289.11,1267.43 1294.01,1268.08 1298.91,1268.73 1303.82,1269.36 1308.72,1269.99 1313.62,1270.62 1318.52,1271.24 1323.42,1271.85 1328.32,1272.46 1333.22,1273.06 1338.13,1273.65 1343.03,1274.24 1347.93,1274.82 1352.83,1275.4 1357.73,1275.97 1362.63,1276.53 1367.54,1277.09 1372.44,1277.65 1377.34,1278.19 1382.24,1278.74 1387.14,1279.28 1392.04,1279.81 1396.95,1280.33 1401.85,1280.86 1406.75,1281.37 1411.65,1281.88 1416.55,1282.39 1421.45,1282.89 1426.36,1283.39 1431.26,1283.88 1436.16,1284.36 1441.06,1284.85 1445.96,1285.32 1450.86,1285.8 1455.76,1286.26 1460.67,1286.73 1465.57,1287.18 1470.47,1287.64 1475.37,1288.09 1480.27,1288.53 1485.17,1288.97 1490.08,1289.41 1494.98,1289.84 1499.88,1290.26 1504.78,1290.69 1509.68,1291.11 1514.58,1291.52 1519.49,1291.93 1524.39,1292.34 1529.29,1292.74 1534.19,1293.14 1539.09,1293.53 1543.99,1293.92 1548.89,1294.31 1553.8,1294.69 1558.7,1295.07 1563.6,1295.45 1568.5,1295.82 1573.4,1296.18 1578.3,1296.55 1583.21,1296.91 1588.11,1297.27 1593.01,1297.62 1597.91,1297.97 1602.81,1298.31 1607.71,1298.66 1612.62,1299 1617.52,1299.33 1622.42,1299.67 1627.32,1299.99 1632.22,1300.32 1637.12,1300.64 1642.03,1300.96 1646.93,1301.28 1651.83,1301.59 1656.73,1301.9 1661.63,1302.21 1666.53,1302.51 1671.43,1302.81 1676.34,1303.11 1681.24,1303.41 1686.14,1303.7 1691.04,1303.99 1695.94,1304.28 1700.84,1304.56 1705.75,1304.84 1710.65,1305.12 1715.55,1305.39 1720.45,1305.66 1725.35,1305.93 1730.25,1306.2 1735.16,1306.47 1740.06,1306.73 1744.96,1306.99 1749.86,1307.24 1754.76,1307.5 1759.66,1307.75 1764.56,1308 1769.47,1308.24 1774.37,1308.49 1779.27,1308.73 1784.17,1308.97 1789.07,1309.2 1793.97,1309.44 1798.88,1309.67 1803.78,1309.9 1808.68,1310.13 1813.58,1310.35 1818.48,1310.58 1823.38,1310.8 1828.29,1311.02 1833.19,1311.23 1838.09,1311.45 1842.99,1311.66 1847.89,1311.87 1852.79,1312.08 1857.7,1312.28 1862.6,1312.49 1867.5,1312.69 1872.4,1312.89 1877.3,1313.08 1882.2,1313.28 1887.1,1313.47 1892.01,1313.67 1896.91,1313.86 1901.81,1314.04 1906.71,1314.23 1911.61,1314.42 1916.51,1314.6 1921.42,1314.78 1926.32,1314.96 1931.22,1315.13 1936.12,1315.31 1941.02,1315.48 1945.92,1315.66 1950.83,1315.83 1955.73,1315.99 1960.63,1316.16 1965.53,1316.33 1970.43,1316.49 1975.33,1316.65 1980.23,1316.81 1985.14,1316.97 1990.04,1317.13 1994.94,1317.28 1999.84,1317.44 2004.74,1317.59 2009.64,1317.74 2014.55,1317.89 2019.45,1318.04 2024.35,1318.18 2029.25,1318.33 2034.15,1318.47 2039.05,1318.62 2043.96,1318.76 2048.86,1318.9 2053.76,1319.03 2058.66,1319.17 2063.56,1319.31 2068.46,1319.44 2073.37,1319.57 2078.27,1319.7 2083.17,1319.83 2088.07,1319.96 2092.97,1320.09 2097.87,1320.22 2102.77,1320.34 2107.68,1320.46 2112.58,1320.59 2117.48,1320.71 2122.38,1320.83 2127.28,1320.95 2132.18,1321.06 2137.09,1321.18 2141.99,1321.3 2146.89,1321.41 2151.79,1321.52 2156.69,1321.63 2161.59,1321.74 2166.5,1321.85 2171.4,1321.96 2176.3,1322.07 2181.2,1322.18 2186.1,1322.28 2191,1322.39 2195.9,1322.49 2200.81,1322.59 2205.71,1322.69 2210.61,1322.79 2215.51,1322.89 2220.41,1322.99 2225.31,1323.09 2230.22,1323.18 2235.12,1323.28 2240.02,1323.37 2244.92,1323.47 2249.82,1323.56 2254.72,1323.65 2259.63,1323.74 2264.53,1323.83 2269.43,1323.92 2274.33,1324.01 2279.23,1324.1 2284.13,1324.18 2289.04,1324.27 2293.94,1324.35 "/>
<path clip-path="url(#clip500)" d="M343.757 454.117 L702.196 454.117 L702.196 91.2366 L343.757 91.2366  Z" fill="#ffffff" fill-rule="evenodd" fill-opacity="1"/>
<polyline clip-path="url(#clip500)" style="stroke:#000000; stroke-linecap:round; stroke-linejoin:round; stroke-width:4; stroke-opacity:1; fill:none" points="343.757,454.117 702.196,454.117 702.196,91.2366 343.757,91.2366 343.757,454.117 "/>
<polyline clip-path="url(#clip500)" style="stroke:#6c8ebf; stroke-linecap:round; stroke-linejoin:round; stroke-width:21; stroke-opacity:1; fill:none" points="366.849,181.957 505.401,181.957 "/>
<path clip-path="url(#clip500)" d="M560.423 199.469 Q560.751 199.838 560.751 200.206 Q560.751 200.575 559.931 201.641 Q559.152 202.707 557.472 204.141 Q555.791 205.576 553.619 206.929 Q551.446 208.281 548.249 209.183 Q545.052 210.126 541.691 210.126 Q535.666 210.126 532.059 205.822 Q528.492 201.518 528.492 194.919 Q528.492 190.697 529.886 186.967 Q531.28 183.196 533.534 180.532 Q535.83 177.867 538.699 175.941 Q541.609 173.973 544.642 173.031 Q547.675 172.088 550.504 172.088 Q554.644 172.088 557.062 174.178 Q559.48 176.269 559.48 179.22 Q559.48 179.917 559.275 180.778 Q559.111 181.638 558.538 182.991 Q558.005 184.344 556.611 185.696 Q555.218 187.008 553.168 187.869 Q548.618 189.795 540.338 189.795 L535.871 189.795 Q534.559 195.083 534.559 198.526 Q534.559 199.879 534.805 201.272 Q535.051 202.625 535.707 204.346 Q536.403 206.068 537.961 207.175 Q539.56 208.24 541.855 208.24 Q542.593 208.24 543.372 208.199 Q544.191 208.158 546.241 207.707 Q548.331 207.257 550.176 206.478 Q552.02 205.699 554.357 204.018 Q556.734 202.297 558.62 199.961 Q559.275 199.1 559.726 199.1 Q560.095 199.1 560.423 199.469 M556.693 179.22 Q556.693 176.966 555.013 175.449 Q553.373 173.932 550.504 173.932 Q549.602 173.932 548.495 174.137 Q547.389 174.342 545.544 175.203 Q543.741 176.064 542.142 177.498 Q540.543 178.892 538.945 181.638 Q537.346 184.344 536.403 187.951 L539.847 187.951 Q541.035 187.951 541.896 187.951 Q542.757 187.91 544.642 187.746 Q546.569 187.582 547.962 187.295 Q549.356 186.967 551.119 186.311 Q552.881 185.655 553.988 184.794 Q555.136 183.893 555.914 182.458 Q556.693 181.023 556.693 179.22 Z" fill="#000000" fill-rule="nonzero" fill-opacity="1" /><path clip-path="url(#clip500)" d="M598.656 157.413 Q598.656 159.02 597.652 159.938 Q596.648 160.828 595.5 160.828 Q594.41 160.828 593.836 160.197 Q593.262 159.565 593.262 158.762 Q593.262 157.672 594.066 156.725 Q594.869 155.778 596.074 155.577 Q594.898 154.831 593.147 154.831 Q592 154.831 590.995 155.434 Q590.02 156.036 589.417 156.811 Q588.844 157.586 588.327 158.705 Q587.839 159.795 587.638 160.455 Q587.466 161.086 587.323 161.775 L585.314 169.809 Q584.339 173.625 584.339 174.973 Q584.339 176.637 585.142 177.756 Q585.946 178.847 587.552 178.847 Q588.184 178.847 588.901 178.675 Q589.618 178.474 590.536 177.957 Q591.483 177.412 592.315 176.609 Q593.176 175.777 594.008 174.371 Q594.84 172.965 595.385 171.157 Q595.558 170.526 596.131 170.526 Q596.849 170.526 596.849 171.1 Q596.849 171.588 596.447 172.62 Q596.074 173.625 595.242 174.945 Q594.439 176.236 593.377 177.412 Q592.315 178.56 590.737 179.363 Q589.159 180.167 587.438 180.167 Q584.97 180.167 583.335 178.847 Q581.699 177.527 581.097 175.691 Q580.953 175.949 580.752 176.293 Q580.551 176.637 579.949 177.412 Q579.375 178.158 578.715 178.732 Q578.055 179.277 577.022 179.708 Q576.018 180.167 574.928 180.167 Q573.55 180.167 572.317 179.765 Q571.112 179.363 570.251 178.445 Q569.39 177.527 569.39 176.264 Q569.39 174.859 570.337 173.883 Q571.312 172.879 572.632 172.879 Q573.464 172.879 574.124 173.367 Q574.813 173.854 574.813 174.916 Q574.813 176.092 574.009 176.982 Q573.206 177.871 572.058 178.101 Q573.235 178.847 574.985 178.847 Q576.879 178.847 578.371 177.183 Q579.863 175.518 580.58 172.735 Q582.359 166.05 583.048 163.066 Q583.736 160.053 583.736 158.762 Q583.736 157.557 583.421 156.725 Q583.105 155.893 582.56 155.52 Q582.043 155.118 581.556 154.975 Q581.097 154.831 580.58 154.831 Q579.719 154.831 578.744 155.175 Q577.797 155.52 576.649 156.323 Q575.53 157.098 574.469 158.705 Q573.407 160.311 572.69 162.521 Q572.546 163.181 571.915 163.181 Q571.226 163.152 571.226 162.578 Q571.226 162.09 571.599 161.086 Q572.001 160.053 572.804 158.762 Q573.636 157.471 574.698 156.323 Q575.788 155.147 577.367 154.343 Q578.973 153.54 580.695 153.54 Q581.47 153.54 582.216 153.712 Q582.99 153.856 583.908 154.286 Q584.855 154.716 585.687 155.663 Q586.519 156.61 587.036 157.987 Q587.38 157.327 587.839 156.696 Q588.327 156.065 589.073 155.29 Q589.848 154.487 590.909 154.028 Q592 153.54 593.205 153.54 Q594.381 153.54 595.529 153.856 Q596.677 154.143 597.652 155.089 Q598.656 156.008 598.656 157.413 Z" fill="#000000" fill-rule="nonzero" fill-opacity="1" /><polyline clip-path="url(#clip500)" style="stroke:#c0a34d; stroke-linecap:round; stroke-linejoin:round; stroke-width:21; stroke-opacity:1; fill:none" points="366.849,272.677 505.401,272.677 "/>
<path clip-path="url(#clip500)" d="M560.423 295.067 Q560.751 295.436 560.751 295.805 Q560.751 296.174 559.931 297.24 Q559.152 298.305 557.472 299.74 Q555.791 301.175 553.619 302.527 Q551.446 303.88 548.249 304.782 Q545.052 305.725 541.691 305.725 Q535.666 305.725 532.059 301.421 Q528.492 297.117 528.492 290.518 Q528.492 286.296 529.886 282.566 Q531.28 278.795 533.534 276.13 Q535.83 273.466 538.699 271.539 Q541.609 269.572 544.642 268.629 Q547.675 267.686 550.504 267.686 Q554.644 267.686 557.062 269.777 Q559.48 271.867 559.48 274.819 Q559.48 275.515 559.275 276.376 Q559.111 277.237 558.538 278.59 Q558.005 279.942 556.611 281.295 Q555.218 282.607 553.168 283.467 Q548.618 285.394 540.338 285.394 L535.871 285.394 Q534.559 290.681 534.559 294.125 Q534.559 295.477 534.805 296.871 Q535.051 298.223 535.707 299.945 Q536.403 301.667 537.961 302.773 Q539.56 303.839 541.855 303.839 Q542.593 303.839 543.372 303.798 Q544.191 303.757 546.241 303.306 Q548.331 302.855 550.176 302.076 Q552.02 301.298 554.357 299.617 Q556.734 297.896 558.62 295.559 Q559.275 294.698 559.726 294.698 Q560.095 294.698 560.423 295.067 M556.693 274.819 Q556.693 272.564 555.013 271.048 Q553.373 269.531 550.504 269.531 Q549.602 269.531 548.495 269.736 Q547.389 269.941 545.544 270.802 Q543.741 271.662 542.142 273.097 Q540.543 274.491 538.945 277.237 Q537.346 279.942 536.403 283.549 L539.847 283.549 Q541.035 283.549 541.896 283.549 Q542.757 283.508 544.642 283.344 Q546.569 283.18 547.962 282.894 Q549.356 282.566 551.119 281.91 Q552.881 281.254 553.988 280.393 Q555.136 279.491 555.914 278.057 Q556.693 276.622 556.693 274.819 Z" fill="#000000" fill-rule="nonzero" fill-opacity="1" /><path clip-path="url(#clip500)" d="M569.39 244.855 L569.39 243.019 Q576.448 243.019 580.092 239.26 Q581.097 239.26 581.269 239.489 Q581.441 239.719 581.441 240.781 L581.441 273.748 Q581.441 275.499 582.302 276.044 Q583.162 276.589 586.921 276.589 L588.786 276.589 L588.786 278.396 Q586.72 278.224 579.26 278.224 Q571.8 278.224 569.763 278.396 L569.763 276.589 L571.628 276.589 Q575.329 276.589 576.219 276.072 Q577.108 275.527 577.108 273.748 L577.108 243.306 Q574.038 244.855 569.39 244.855 Z" fill="#000000" fill-rule="nonzero" fill-opacity="1" /><path clip-path="url(#clip500)" d="M593.429 277.45 Q592.539 276.503 592.539 275.269 Q592.539 274.035 593.429 273.146 Q594.318 272.228 595.667 272.228 Q596.958 272.228 597.819 273.088 Q598.708 273.92 598.708 275.298 Q598.708 276.646 597.761 277.536 Q596.843 278.396 595.667 278.396 Q594.318 278.396 593.429 277.45 Z" fill="#000000" fill-rule="nonzero" fill-opacity="1" /><path clip-path="url(#clip500)" d="M608.709 268.928 Q608.709 267.178 609.655 266.518 Q610.602 265.829 611.607 265.829 Q612.955 265.829 613.73 266.69 Q614.533 267.522 614.533 268.698 Q614.533 269.875 613.73 270.736 Q612.955 271.568 611.607 271.568 Q610.947 271.568 610.602 271.453 Q611.377 274.15 613.73 276.101 Q616.111 278.052 619.239 278.052 Q623.17 278.052 625.522 274.236 Q626.928 271.768 626.928 266.173 Q626.928 261.238 625.867 258.771 Q624.231 255.012 620.874 255.012 Q616.111 255.012 613.299 259.115 Q612.955 259.632 612.553 259.66 Q611.98 259.66 611.836 259.345 Q611.721 259 611.721 258.111 L611.721 240.723 Q611.721 239.317 612.295 239.317 Q612.525 239.317 613.012 239.489 Q616.714 241.125 620.817 241.154 Q625.035 241.154 628.822 239.432 Q629.109 239.26 629.281 239.26 Q629.855 239.26 629.884 239.92 Q629.884 240.149 629.396 240.838 Q628.937 241.498 627.933 242.387 Q626.928 243.248 625.637 244.08 Q624.346 244.912 622.452 245.486 Q620.587 246.031 618.521 246.031 Q616.054 246.031 613.529 245.257 L613.529 256.705 Q616.57 253.721 620.989 253.721 Q625.695 253.721 628.937 257.508 Q632.179 261.296 632.179 266.575 Q632.179 272.113 628.334 275.9 Q624.518 279.688 619.354 279.688 Q614.648 279.688 611.664 276.331 Q608.709 272.974 608.709 268.928 Z" fill="#000000" fill-rule="nonzero" fill-opacity="1" /><path clip-path="url(#clip500)" d="M666.133 256.303 Q666.133 257.91 665.129 258.828 Q664.125 259.718 662.977 259.718 Q661.887 259.718 661.313 259.086 Q660.739 258.455 660.739 257.652 Q660.739 256.561 661.543 255.615 Q662.346 254.668 663.551 254.467 Q662.375 253.721 660.624 253.721 Q659.477 253.721 658.472 254.323 Q657.497 254.926 656.894 255.701 Q656.321 256.475 655.804 257.594 Q655.316 258.685 655.115 259.345 Q654.943 259.976 654.8 260.665 L652.791 268.698 Q651.816 272.515 651.816 273.863 Q651.816 275.527 652.619 276.646 Q653.423 277.737 655.029 277.737 Q655.661 277.737 656.378 277.564 Q657.095 277.364 658.013 276.847 Q658.96 276.302 659.792 275.499 Q660.653 274.666 661.485 273.261 Q662.317 271.855 662.862 270.047 Q663.035 269.416 663.608 269.416 Q664.326 269.416 664.326 269.99 Q664.326 270.477 663.924 271.51 Q663.551 272.515 662.719 273.834 Q661.916 275.126 660.854 276.302 Q659.792 277.45 658.214 278.253 Q656.636 279.056 654.915 279.056 Q652.447 279.056 650.812 277.737 Q649.176 276.417 648.574 274.58 Q648.43 274.839 648.229 275.183 Q648.028 275.527 647.426 276.302 Q646.852 277.048 646.192 277.622 Q645.532 278.167 644.499 278.597 Q643.495 279.056 642.405 279.056 Q641.027 279.056 639.794 278.655 Q638.589 278.253 637.728 277.335 Q636.867 276.417 636.867 275.154 Q636.867 273.748 637.814 272.773 Q638.789 271.768 640.109 271.768 Q640.941 271.768 641.601 272.256 Q642.29 272.744 642.29 273.806 Q642.29 274.982 641.487 275.872 Q640.683 276.761 639.535 276.991 Q640.712 277.737 642.462 277.737 Q644.356 277.737 645.848 276.072 Q647.34 274.408 648.057 271.625 Q649.836 264.94 650.525 261.956 Q651.213 258.943 651.213 257.652 Q651.213 256.447 650.898 255.615 Q650.582 254.783 650.037 254.41 Q649.52 254.008 649.033 253.864 Q648.574 253.721 648.057 253.721 Q647.196 253.721 646.221 254.065 Q645.274 254.41 644.126 255.213 Q643.007 255.988 641.946 257.594 Q640.884 259.201 640.167 261.411 Q640.023 262.07 639.392 262.07 Q638.703 262.042 638.703 261.468 Q638.703 260.98 639.076 259.976 Q639.478 258.943 640.281 257.652 Q641.114 256.361 642.175 255.213 Q643.265 254.037 644.844 253.233 Q646.45 252.43 648.172 252.43 Q648.947 252.43 649.693 252.602 Q650.467 252.745 651.385 253.176 Q652.332 253.606 653.164 254.553 Q653.996 255.5 654.513 256.877 Q654.857 256.217 655.316 255.586 Q655.804 254.955 656.55 254.18 Q657.325 253.377 658.386 252.918 Q659.477 252.43 660.682 252.43 Q661.858 252.43 663.006 252.745 Q664.154 253.032 665.129 253.979 Q666.133 254.897 666.133 256.303 Z" fill="#000000" fill-rule="nonzero" fill-opacity="1" /><polyline clip-path="url(#clip500)" style="stroke:#780000; stroke-linecap:round; stroke-linejoin:round; stroke-width:21; stroke-opacity:1; fill:none" points="366.849,363.397 505.401,363.397 "/>
<path clip-path="url(#clip500)" d="M560.423 380.909 Q560.751 381.278 560.751 381.646 Q560.751 382.015 559.931 383.081 Q559.152 384.147 557.472 385.581 Q555.791 387.016 553.619 388.369 Q551.446 389.721 548.249 390.623 Q545.052 391.566 541.691 391.566 Q535.666 391.566 532.059 387.262 Q528.492 382.958 528.492 376.359 Q528.492 372.137 529.886 368.407 Q531.28 364.636 533.534 361.972 Q535.83 359.307 538.699 357.381 Q541.609 355.413 544.642 354.471 Q547.675 353.528 550.504 353.528 Q554.644 353.528 557.062 355.618 Q559.48 357.709 559.48 360.66 Q559.48 361.357 559.275 362.218 Q559.111 363.078 558.538 364.431 Q558.005 365.784 556.611 367.136 Q555.218 368.448 553.168 369.309 Q548.618 371.235 540.338 371.235 L535.871 371.235 Q534.559 376.523 534.559 379.966 Q534.559 381.319 534.805 382.712 Q535.051 384.065 535.707 385.786 Q536.403 387.508 537.961 388.615 Q539.56 389.68 541.855 389.68 Q542.593 389.68 543.372 389.639 Q544.191 389.598 546.241 389.147 Q548.331 388.697 550.176 387.918 Q552.02 387.139 554.357 385.458 Q556.734 383.737 558.62 381.401 Q559.275 380.54 559.726 380.54 Q560.095 380.54 560.423 380.909 M556.693 360.66 Q556.693 358.406 555.013 356.889 Q553.373 355.372 550.504 355.372 Q549.602 355.372 548.495 355.577 Q547.389 355.782 545.544 356.643 Q543.741 357.504 542.142 358.938 Q540.543 360.332 538.945 363.078 Q537.346 365.784 536.403 369.391 L539.847 369.391 Q541.035 369.391 541.896 369.391 Q542.757 369.35 544.642 369.186 Q546.569 369.022 547.962 368.735 Q549.356 368.407 551.119 367.751 Q552.881 367.095 553.988 366.234 Q555.136 365.333 555.914 363.898 Q556.693 362.463 556.693 360.66 Z" fill="#000000" fill-rule="nonzero" fill-opacity="1" /><path clip-path="url(#clip500)" d="M608.182 345.424 Q608.527 345.768 608.527 346.256 Q608.527 346.744 608.182 347.088 Q607.838 347.433 607.35 347.433 L570.566 347.433 Q570.079 347.433 569.734 347.088 Q569.39 346.744 569.39 346.256 Q569.39 345.768 569.734 345.424 Q570.079 345.08 570.566 345.08 L607.35 345.08 Q607.838 345.08 608.182 345.424 Z" fill="#000000" fill-rule="nonzero" fill-opacity="1" /><path clip-path="url(#clip500)" d="M643.925 338.853 Q643.925 340.46 642.921 341.378 Q641.916 342.268 640.769 342.268 Q639.678 342.268 639.105 341.637 Q638.531 341.005 638.531 340.202 Q638.531 339.112 639.334 338.165 Q640.138 337.218 641.343 337.017 Q640.166 336.271 638.416 336.271 Q637.268 336.271 636.264 336.874 Q635.289 337.476 634.686 338.251 Q634.112 339.026 633.596 340.145 Q633.108 341.235 632.907 341.895 Q632.735 342.526 632.591 343.215 L630.583 351.249 Q629.607 355.065 629.607 356.413 Q629.607 358.077 630.411 359.196 Q631.214 360.287 632.821 360.287 Q633.452 360.287 634.169 360.115 Q634.887 359.914 635.805 359.397 Q636.752 358.852 637.584 358.049 Q638.445 357.217 639.277 355.811 Q640.109 354.405 640.654 352.597 Q640.826 351.966 641.4 351.966 Q642.117 351.966 642.117 352.54 Q642.117 353.028 641.716 354.06 Q641.343 355.065 640.511 356.385 Q639.707 357.676 638.646 358.852 Q637.584 360 636.006 360.803 Q634.428 361.607 632.706 361.607 Q630.239 361.607 628.603 360.287 Q626.968 358.967 626.365 357.131 Q626.222 357.389 626.021 357.733 Q625.82 358.077 625.217 358.852 Q624.644 359.598 623.984 360.172 Q623.324 360.717 622.291 361.148 Q621.287 361.607 620.196 361.607 Q618.819 361.607 617.585 361.205 Q616.38 360.803 615.519 359.885 Q614.659 358.967 614.659 357.704 Q614.659 356.299 615.605 355.323 Q616.581 354.319 617.901 354.319 Q618.733 354.319 619.393 354.807 Q620.081 355.294 620.081 356.356 Q620.081 357.532 619.278 358.422 Q618.475 359.311 617.327 359.541 Q618.503 360.287 620.254 360.287 Q622.147 360.287 623.639 358.623 Q625.131 356.958 625.849 354.175 Q627.628 347.49 628.316 344.506 Q629.005 341.493 629.005 340.202 Q629.005 338.997 628.689 338.165 Q628.374 337.333 627.828 336.96 Q627.312 336.558 626.824 336.415 Q626.365 336.271 625.849 336.271 Q624.988 336.271 624.012 336.615 Q623.066 336.96 621.918 337.763 Q620.799 338.538 619.737 340.145 Q618.676 341.751 617.958 343.961 Q617.815 344.621 617.184 344.621 Q616.495 344.592 616.495 344.018 Q616.495 343.53 616.868 342.526 Q617.27 341.493 618.073 340.202 Q618.905 338.911 619.967 337.763 Q621.057 336.587 622.635 335.783 Q624.242 334.98 625.963 334.98 Q626.738 334.98 627.484 335.152 Q628.259 335.296 629.177 335.726 Q630.124 336.156 630.956 337.103 Q631.788 338.05 632.304 339.427 Q632.649 338.767 633.108 338.136 Q633.596 337.505 634.342 336.73 Q635.116 335.927 636.178 335.468 Q637.268 334.98 638.473 334.98 Q639.65 334.98 640.797 335.296 Q641.945 335.583 642.921 336.529 Q643.925 337.448 643.925 338.853 Z" fill="#000000" fill-rule="nonzero" fill-opacity="1" /></svg>
